<?xml version="1.0" encoding="UTF-8"?>
<svg viewBox="0 0 46 46" version="1.1"
    xmlns="http://www.w3.org/2000/svg"
    xmlns:xlink="http://www.w3.org/1999/xlink">
    <g transform="translate(-504.000000, -818.000000)" fill="currentColor" fill-rule="nonzero">
        <g transform="translate(487.000000, 205.000000)">
            <g transform="translate(0.000000, 601.000000)">
                <g transform="translate(27.000000, 22.000000)">
                    <path d="M13,0 C5.82029297,0 0,5.82029297 0,13 C0,20.1796055 5.82029297,26 13,26 C20.1796055,26 26,20.1796055 26,13 C26,5.82029297 20.1795039,0 13,0 Z M13,24 C6.92484896,24 2,19.075151 2,13 C2,6.92484896 6.92484896,2 13,2 C19.075151,2 24,6.92484896 24,13 C24,19.075151 19.0750365,24 13,24 Z M10.038975,18.8750781 L18.626768,13.5995799 C18.8475679,13.4926056 19,13.2644 19,12.9999909 C19,12.7435806 18.8564801,12.5212224 18.6466187,12.4105557 L10.0144644,7.10800012 L10.0148696,7.10810267 C9.91155954,7.03979482 9.7886004,7 9.65612119,7 C9.29382648,7 9,7.29743509 9,7.66451345 L9,18.3355881 C9,18.7026665 9.29372362,19 9.65612119,19 C9.7989321,19 9.93110759,18.9535385 10.0389764,18.8750767 L10.038975,18.8750781 Z" id="Shape"></path>
                </g>
            </g>
        </g>
    </g>
</svg>
