<svg viewBox="0 0 16 16" xmlns="http://www.w3.org/2000/svg">
	<circle cx="8" cy="8" fill="#0278ff" r="8"/>
	<path d="m5.25330461 4.00117579 2.49485143-2.49485143c.34363048-.34363048.34363048-.90379524 0-1.24742572-.34363048-.34363047-.90379523-.34363047-1.24742571 0l-2.49485143 2.49485143-2.49485143-2.49485143c-.34363048-.34363047-.90379523-.34363047-1.24742571 0-.34363048.34363048-.34363048.90379524 0 1.24742572l2.49485143 2.49485143-2.49485143 2.49485143c-.34363048.34363047-.34363048.90379523 0 1.24742571.34363048.34363047.90379523.34363047 1.24742571 0l2.49485143-2.49485143 2.49485143 2.49485143c.34363048.34363047.90379523.34363047 1.24742571 0 .34363048-.34363048.34363048-.90379524 0-1.24742571z" fill="#fff" fill-rule="nonzero" transform="translate(4 4)"/>
</svg>
