<svg  viewBox="0 0 18 18" xmlns="http://www.w3.org/2000/svg" xmlns:xlink="http://www.w3.org/1999/xlink"><path d="m6.41143068 18.3674873.28441518.7409269c.16681795.4345756-.05024252.9221014-.48481813 1.0889193-.43457561.166818-.92210142-.0502425-1.08891937-.4848181l-1.29150619-3.3644887c-.16681794-.4345756.05024253-.9221014.48481814-1.0889193.43457561-.166818.92210141.0502425 1.08891936.4848181l.39966223 1.0411557 1.9633608-.5260809-.81989221-2.5233688h-5.24987683c-.38528383 0-.69759366-.3123941-.69759366-.6975937l.00915336-.4043154v-2.1844156-5.75171314c0-.38528383.31232669-.69759366.69759366-.69759366h2.96631126 6.85621812 1.8857938c.3852838 0 .6975262.31232669.6975262.69759366v1.92491888l2.1897931-.74118589c.385267 0 .6975768.31232669.6976105.69759366v5.16810649c0 .3852164-.3123267.6975263-.6975937.6975263l-2.189793-.7411185v1.1028699.2317333c0 .3852164-.3122593.6975937-.6975263.6975937h-3.78031942-.91484613l.84371098 2.5966754c.06061785.0822823.10718586.177053.13523438.2817315.12047858.4496322-.14635314.9117982-.59598532 1.0322768zm-1.38287912-8.83893574c.82842713 0 1.5-.67157287 1.5-1.5 0-.82842712-.67157287-1.5-1.5-1.5-.82842712 0-1.5.67157288-1.5 1.5 0 .82842713.67157288 1.5 1.5 1.5z" mask="url(#a)" transform="matrix(.93358043 .35836795 -.35836795 .93358043 3.943622 -3.419857)"/></svg>
