<svg viewBox="0 0 72 72" xmlns="http://www.w3.org/2000/svg"><g fill="none" fill-rule="evenodd"><g fill="#00cc4b"><rect fill-opacity=".1" height="72" rx="4" width="72"/><rect fill-opacity=".25" height="56" rx="4" width="56" x="8" y="8"/><rect height="40" rx="4" width="40" x="16" y="16"/></g><g transform="translate(24 24)"><path d="m0 0h24v24h-24z"/><path d="m20.8079616 7.72180932-2.8059264 1.15110465v-2.98951058c0-.59834194-.4000968-1.08340339-.8937864-1.08340339h-2.416392-8.7853248-2.6009304c-.493668 0-.8938728.48503527-.8938728 1.08340339v8.93274381 3.3925242l-.0117288.6279252c0 .5982372.4001832 1.0834034.8938728 1.0834034h8.9704248 4.8439728c.493668 0 .8937864-.48514.8937864-1.0834034v-.3598953-1.7128209l2.8059264 1.151c.493668 0 .8938728-.4850353.8938728-1.0832987v-8.02636899c-.0000432-.59834194-.4002264-1.08340339-.8938944-1.08340339zm-8.0696433 4.80216468-3.89222422 2.9370207c-.08997372.0675676-.19836136.1023994-.3066492.1023994-.07754806 0-.15512108-.0179149-.2271799-.0536449-.1724122-.0855075-.28172304-.2624857-.28172304-.455258v-5.69521675c0-.18982808.10636661-.3647853.2753106-.452214.16794596-.08650552.37222073-.07255785.52771608.03675299l3.89232398 2.75819606c.1326152.0943401.2122093.245494.2146545.4074267.0024452.1630306-.0725579.3161057-.2022288.4145378z" fill="#fff" fill-rule="nonzero"/></g></g></svg>
