<svg  viewBox="0 0 13 17" xmlns="http://www.w3.org/2000/svg"><g fill="none" fill-rule="evenodd" transform="translate(-3 -1)"><path d="m0 0h18v18h-18z" fill="none"/><path d="m6.04101562 3.02734375.94335938-1.88671875c.04296875-.0859375.13085937-.140625.2265625-.140625h3.7402344c.0957031 0 .1835937.0546875.2265625.140625l.9433594 1.88671875h2.7871093c.140625 0 .2539063.11328125.2539063.25390625v1.51953125c0 .140625-.1132813.25390625-.2539063.25390625h-11.65429685c-.140625 0-.25390625-.11328125-.25390625-.25390625v-1.51953125c0-.140625.11328125-.25390625.25390625-.25390625zm-1.7734375 3.0390625h9.62695318c.140625 0 .2539062.11328125.2539062.25390625v9.8789063c0 .5605468-.453125 1.0136718-1.0136719 1.0136718h-8.10546873c-.56054687 0-1.01367187-.453125-1.01367187-1.0136718v-9.8789063c-.00195313-.140625.11132812-.25390625.25195312-.25390625zm2.78515625 3.546875v4.05273435c0 .2792969.2265625.5058594.50585938.5058594.27929687 0 .50585937-.2265625.50585937-.5058594v-4.05273435c0-.27929687-.2265625-.50585937-.50585937-.50585937-.27734375 0-.50585938.2265625-.50585938.50585937zm3.04101563 0v4.05273435c0 .2792969.2265625.5058594.5058594.5058594.2792968 0 .5058593-.2265625.5058593-.5058594v-4.05273435c0-.27929687-.2265625-.50585937-.5058593-.50585937-.2792969 0-.5058594.2265625-.5058594.50585937z" fill="#ff3c2f" fill-rule="nonzero"/></g></svg>
