<?xml version="1.0" encoding="UTF-8"?>
<svg width="23px" height="21px" viewBox="0 0 23 21" version="1.1" xmlns="http://www.w3.org/2000/svg" xmlns:xlink="http://www.w3.org/1999/xlink" fill="currentColor">
			<path d="M8.5,8.77857941 C13.1711712,8.77857941 17,7.40459119 17,5.6488932 L17,3.12980548 C17,1.37398821 13.1711712,0 8.5,0 C3.82882883,0 0,1.37398821 0,3.12980548 L0,5.6488932 C0,7.32831484 3.82882883,8.77857941 8.5,8.77857941 Z M12.5585586,15.8778863 C11.3333034,16.1068942 9.95498487,16.259596 8.42348325,16.259596 C3.82882883,16.259596 0,14.8854886 0,13.1297906 L0,16.8703138 C0,18.6260118 3.82882883,20 8.5,20 C10.2612313,20 11.8693993,19.770992 13.1711712,19.4657077 C12.7117416,18.6260118 12.4820119,17.7100097 12.4820119,16.717612 C12.4820119,16.488604 12.5585586,16.1832004 12.5585586,15.8778863 Z" id="Fill-1"></path>
			<path d="M17.25,11.2327762 L17.25,8 C17.25,9.58207745 13.3648649,10.8201082 8.625,10.8201082 C3.88513514,10.8201082 0,9.58207745 0,8 L0,11.370368 C0,12.952338 3.88513514,14.1904762 8.625,14.1904762 C10.4121318,14.1904762 12.1215913,13.9841556 13.5203006,13.7089452 C14.2972669,12.4709144 15.6182129,11.5767154 17.25,11.2327762 Z M22.3915028,16.0376421 L21.9351819,16.0376421 C21.7070066,16.0376421 21.5549788,15.8978285 21.4788313,15.6881764 L21.2506857,15.1290041 C21.1746569,14.9891905 21.1746569,14.7096726 21.3266847,14.6398067 L21.6309778,14.3601796 C21.7831541,14.2204752 21.7831541,14.0106866 21.6309778,13.8709823 L21.0985391,13.3816757 C20.9464816,13.2418622 20.718336,13.2418622 20.5661894,13.3816757 L20.2618666,13.6613029 C20.1098388,13.8010345 19.8816932,13.8010345 19.6535179,13.7311687 L19.1210494,13.5214893 C18.9689028,13.4516508 18.7407275,13.2418622 18.7407275,13.1021578 L18.7407275,12.6828263 C18.7407275,12.4731469 18.588581,12.3333333 18.3604056,12.3333333 L17.6759094,12.3333333 C17.4477638,12.3333333 17.2956172,12.4731469 17.2956172,12.6828263 L17.2956172,13.1021578 C17.2956172,13.3118372 17.1435598,13.4516508 16.9154142,13.5214893 L16.306917,13.7311687 C16.1547704,13.8010345 15.8505961,13.8010345 15.7744485,13.6613029 L15.4702742,13.3816757 C15.3181276,13.2418622 15.0899523,13.2418622 14.9378057,13.3816757 L14.5574838,13.8709823 C14.4054561,14.0106866 14.4054561,14.2204752 14.5574838,14.3601796 L14.8618067,14.6398067 C15.0139533,14.7795111 15.0139533,14.9891905 14.9378057,15.1290041 L14.7096601,15.6881764 C14.6336314,15.82799 14.4054561,16.0376421 14.2533095,16.0376421 L13.7969886,16.0376421 C13.5688133,16.0376421 13.4166667,16.177483 13.4166667,16.3871351 L13.4166667,17.016146 C13.4166667,17.2258254 13.5688133,17.365639 13.7969886,17.365639 L14.2533095,17.365639 C14.4814848,17.365639 14.6336314,17.5053433 14.7096601,17.7151319 L14.9378057,18.2741678 C15.0139533,18.4140087 15.0139533,18.6936358 14.8618067,18.8333402 L14.5574838,18.9731537 C14.4054561,19.1129673 14.4054561,19.3226467 14.5574838,19.4624603 L15.0899523,19.9516576 C15.2420989,20.0914712 15.4702742,20.0914712 15.6223019,19.9516576 L15.9265951,19.6721397 C16.0787714,19.5322988 16.306917,19.5322988 16.4589447,19.6021646 L17.0674419,19.811844 C17.2195885,19.8817918 17.4477638,20.0914712 17.4477638,20.2311755 L17.4477638,20.6506162 C17.4477638,20.8602956 17.5999104,21 17.828056,21 L18.5125819,21 C18.7407275,21 18.8928741,20.8602956 18.8928741,20.6506162 L18.8928741,20.2311755 C18.8928741,20.0214961 19.0450207,19.8817918 19.273196,19.811844 L19.8816932,19.6021646 C20.033721,19.5322988 20.3380141,19.5322988 20.4900419,19.6721397 L20.794335,19.9516576 C20.9464816,20.0914712 21.1746569,20.0914712 21.3266847,19.9516576 L21.8591532,19.4624603 C22.0112997,19.3226467 22.0112997,19.1129673 21.8591532,18.9731537 L21.5549788,18.6936358 C21.4028322,18.5538222 21.4028322,18.3441428 21.4788313,18.1344634 L21.7070066,17.5753184 C21.7831541,17.4355048 22.0112997,17.2258254 22.1633275,17.2258254 L22.6197969,17.2258254 C22.8479425,17.2258254 23,17.0860118 23,16.8763324 L23,16.3171873 C22.7718247,16.177483 22.6197969,16.0376421 22.3915028,16.0376421 Z M19.8055556,16.6666818 C19.8055556,17.6726398 18.9270736,18.5238095 17.8888733,18.5238095 C16.850673,18.5238095 15.9722222,17.6726398 15.9722222,16.6666818 C15.9722222,15.6606935 16.850673,14.8095238 17.8888733,14.8095238 C19.0069016,14.8095238 19.8055556,15.6606935 19.8055556,16.6666818 Z" id="Fill-3"></path>
</svg>
