<?xml version="1.0" encoding="UTF-8"?>
<svg width="24px" height="24px" viewBox="0 0 24 24" version="1.1" xmlns="http://www.w3.org/2000/svg" xmlns:xlink="http://www.w3.org/1999/xlink" fill='currentcolor'>
  <path d="M6.31578947,19.4258992 C6.39563236,20.8713228 7.55145437,22.0255317 8.99900295,22.1052632 C10.4464729,22.0255317 11.6022949,20.8713228 11.6821378,19.4258992 L6.31578947,19.4258992 Z M15.9752584,7.36842105 C13.7524451,7.36842105 11.950412,9.16783453 11.950412,11.3875455 C11.950412,13.6072565 13.7524451,15.40667 15.9752584,15.40667 C18.1980717,15.40667 20,13.6072565 20,11.3875455 C20,10.3216509 19.5759182,9.29937703 18.8211187,8.54565709 C18.0663453,7.79191097 17.0426427,7.36842105 15.9752584,7.36842105 Z M18.6583671,12.0574781 L15.3043895,12.0574781 L15.3043895,8.70818155 L16.6460225,8.70818155 L16.6460225,10.7177438 L18.6583671,10.7177438 L18.6583671,12.0574781 Z" id="Fill-1"></path>
  <path d="M16.8280697,17.8947368 C16.8050426,17.3595661 16.6027605,16.8467635 16.2526114,16.4357203 C15.9837152,16.4826613 15.711639,16.5101646 15.4385759,16.5182569 C12.68278,16.4681704 10.3717361,14.4634442 9.98441473,11.7871601 C9.59709338,9.11084919 11.2479722,6.55468686 13.8807376,5.75432345 C13.4235948,4.90597049 12.7638409,4.178734 11.9579471,3.63461055 C11.5273677,3.32449325 11.0550105,3.07432927 10.5544178,2.89129689 L10.5544178,2.03791645 C10.5544178,1.49285203 10.331795,0.970505348 9.93611264,0.587583745 C9.54043026,0.204796567 9.00491305,-0.00659938592 8.44916489,0.000740191234 C7.888592,-0.0140733876 7.34567322,0.193988838 6.9439051,0.577609448 C6.54210957,0.961256943 6.31553933,1.48793209 6.31575863,2.03791645 L6.31575863,2.89129689 C5.81524811,3.07432927 5.34289095,3.32449325 4.91231154,3.63461055 C3.06759388,4.85357182 2.05845852,6.97065 2.28771525,9.14044947 C2.25967153,17.1101549 0.140383088,15.527199 0,17.8947368 L16.8421053,17.8947368 L16.8280697,17.8947368 Z M7.71928797,2.03791645 C7.71928797,1.86273446 7.7902882,1.69459631 7.91663572,1.57079135 C8.04298324,1.44685197 8.21431585,1.37722008 8.39294038,1.37722008 C8.76504739,1.37722008 9.06670244,1.6730615 9.06670244,2.03791645 L9.06670244,2.54725085 C8.60034878,2.49442202 8.12941712,2.49442202 7.66317311,2.54725085 L7.66317311,2.03791645 L7.71928797,2.03791645 Z" id="Fill-3"></path>
</svg>
