<?xml version="1.0" encoding="UTF-8"?>
<svg viewBox="0 0 20 20" version="1.1" xmlns="http://www.w3.org/2000/svg" xmlns:xlink="http://www.w3.org/1999/xlink" fill="currentcolor">
  <path d="M4.645625,4.522125 C5.47820759,3.72531134 6.47807997,3.12429468 7.572375,2.762875 C8.1175,3.5125 9.001875,4 10,4 C10.998125,4 11.882375,3.5125 12.427625,2.762875 C13.52192,3.12429468 14.5217924,3.72531134 15.354375,4.522125 C15.003,5.357625 15.03275,6.342 15.520875,7.1875 C15.984125,7.989875 16.762,8.49725 17.608625,8.64375 C17.7029068,9.13185778 17.7502478,9.62787002 17.75,10.125 C17.75,10.81825 17.659,11.490125 17.48825,12.1295 C16.688625,12.30175 15.962,12.79825 15.520875,13.5625 C15.1201648,14.2545422 15.0132921,15.0782363 15.224125,15.849625 C14.3284186,16.668583 13.2526035,17.2653255 12.083625,17.591625 C11.5249369,17.0508299 10.7775542,16.7489446 10,16.75 C9.22240252,16.7489121 8.47496918,17.0507998 7.91625,17.591625 C6.74731593,17.2653075 5.67154549,16.668566 4.775875,15.849625 C4.98670787,15.0782363 4.87983518,14.2545422 4.479125,13.5625 C4.037875,12.798375 3.311375,12.30175 2.511625,12.1295 C2.33739625,11.4755975 2.24944195,10.8017155 2.25,10.125 C2.25,9.6185 2.298625,9.12325 2.391375,8.64375 C3.238,8.49725 4.015875,7.989875 4.479125,7.1875 C4.96725,6.342 4.997,5.3575 4.645625,4.522125 Z M10,13.875 C12.071125,13.875 13.75,12.196125 13.75,10.125 C13.75,8.053875 12.071125,6.375 10,6.375 C7.928875,6.375 6.25,8.053875 6.25,10.125 C6.25,12.196125 7.928875,13.875 10,13.875 Z M10,12 C8.895375,12 8,11.104625 8,10 C8,8.895375 8.895375,8 10,8 C11.104625,8 12,8.895375 12,10 C12,11.104625 11.104625,12 10,12 Z" id="Shape"></path>
</svg>
