<?xml version="1.0" encoding="UTF-8"?>
<svg width="24px" height="24px" viewBox="0 0 24 24" version="1.1" xmlns="http://www.w3.org/2000/svg" xmlns:xlink="http://www.w3.org/1999/xlink" fill="currentcolor">
  <path d="M19.4999799,11.9999817 L19.3634746,11.9999817 C18.7210153,15.7661948 15.7673996,18.7144015 11.9999817,19.3500676 L11.9999817,19.5000568 C11.9999817,20.3284965 11.3283756,21 10.4999615,21 C9.67152182,21 9.00001831,20.3284965 9.00001831,19.5000568 L9.00001831,19.3500676 C5.23260038,18.7144015 2.27898472,15.7661948 1.63652544,11.9999817 L1.50004578,11.9999817 C0.671606044,11.9999817 0,11.3284782 0,10.5000641 C0,9.67162436 0.671606044,9.00001831 1.50004578,9.00001831 L1.63652544,9.00001831 C2.27990757,5.23421537 5.23311308,2.28639317 9.00001831,1.65003497 L9.00001831,1.50004578 C9.00001831,0.671606044 9.67162436,0 10.5000641,0 C11.3284782,0 11.9999817,0.671606044 11.9999817,1.50004578 L11.9999817,1.65003497 C15.7669895,2.28639317 18.7202206,5.23421537 19.3634746,9.00001831 L19.5000824,9.00001831 C20.3284965,9.00001831 21,9.67162436 21,10.5000641 C21,11.3284782 20.3284965,11.9999817 19.5000824,11.9999817 L19.4999799,11.9999817 Z M10.4999615,5.99995239 C8.01466799,5.99995239 5.99995239,8.01466799 5.99995239,10.4999615 C5.99995239,12.9852295 8.01466799,14.9999707 10.4999615,14.9999707 C12.9852295,15.0000732 14.9999707,12.985332 14.9999707,10.5000641 C14.9999707,8.01466799 12.985332,6.00005493 10.4999615,6.00005493 L10.4999615,5.99995239 Z M10.4999615,13.5000275 C9.28661534,13.5000275 8.19272729,12.7690256 7.72837857,11.6480159 C7.26395296,10.5269806 7.52071108,9.23662749 8.3786821,8.3786821 C9.23662749,7.52071108 10.5269806,7.26395296 11.6480159,7.72837857 C12.7691281,8.19272729 13.5000275,9.28661534 13.5000275,10.5000641 C13.5000275,12.1568923 12.1567897,13.5000275 10.4999615,13.5000275 Z" id="Fill-1"></path>
</svg>
