<svg viewBox="0 0 17 13" xmlns="http://www.w3.org/2000/svg"><g fill="none" fill-rule="evenodd" transform="translate(-2 -4)"><path d="m0 0h20v20h-20z"/><path d="m17.339968 6.4348411-2.338272.95925387v-2.49125881c0-.49861828-.333414-.90283616-.744822-.90283616h-2.01366-7.321104-2.167442c-.41139 0-.744894.40419606-.744894.90283616v7.44395314 2.8271035l-.009774.523271c0 .4985311.333486.9028362.744894.9028362h7.475354 4.036644c.41139 0 .744822-.4042833.744822-.9028362v-.2999127-1.4273507l2.338272.9591666c.41139 0 .744894-.4041961.744894-.9027489v-6.68864084c-.000036-.49861828-.333522-.90283616-.744912-.90283616zm-6.7247028 4.0018039-3.24352013 2.4475173c-.0749781.0563063-.16530114.0853328-.255541.0853328-.06462339 0-.12926757-.0149291-.18931659-.0447041-.14367683-.0712562-.23476919-.2187381-.23476919-.3793817v-4.74601392c0-.15819007.08863883-.30398775.2294255-.37684501.13995496-.07208793.31018394-.06046487.43976339.03062749l3.24360332 2.2984967c.1105127.0786168.176841.20457835.1788787.33952234.0020377.1358588-.0604648.2634213-.168524.3454481z" fill="#fff" fill-rule="nonzero"/></g></svg>
