<svg viewBox="0 0 32 32" xmlns="http://www.w3.org/2000/svg"><g fill="#0278ff" fill-rule="evenodd" transform=""><path d="m29.9998565 24.0100283h-1.9921795v-17.01043291l-3.9999451 3.99979841v13.01083h-15.99997552v-15.99943816h11.99221612l3.8612342-3.9997496h-15.85345032v-2.01103909c0-1.10450802-.8955378-1.99999695-1.99999695-1.99999695-1.10450801 0-1.99999695.89548893-1.99999695 1.99999695v2.01103909h-2.00776553c-1.10450802 0-1.99999695.89548894-1.99999695 1.99975265 0 1.10450801.89548893 1.99999695 1.99999695 1.99999695h2.00776553v19.99918776h19.99996942v1.9887105c0 1.104508.895489 1.9998015 1.999997 1.9998015 1.1044591 0 1.9999481-.8952935 1.9999481-1.9998015v-1.9887105h1.9921795c1.1044591 0 2.0001435-.895489 2.0001435-1.9999481 0-1.104508-.8956844-1.999997-2.0001435-1.999997z"/><path d="m17.2474257 16 2.4948514-2.4948514c.3436305-.3436305.3436305-.9037953 0-1.2474257-.3436304-.3436305-.9037952-.3436305-1.2474257 0l-2.4948514 2.4948514-2.4948514-2.4948514c-.3436305-.3436305-.9037953-.3436305-1.2474257 0-.3436305.3436304-.3436305.9037952 0 1.2474257l2.4948514 2.4948514-2.4948514 2.4948514c-.3436305.3436305-.3436305.9037953 0 1.2474257.3436304.3436305.9037952.3436305 1.2474257 0l2.4948514-2.4948514 2.4948514 2.4948514c.3436305.3436305.9037953.3436305 1.2474257 0 .3436305-.3436304.3436305-.9037952 0-1.2474257z" fill-rule="nonzero" transform="matrix(.70710678 .70710678 -.70710678 .70710678 16 -6.627417)"/></g></svg>
