<svg viewBox="0 0 18 17"
    xmlns="http://www.w3.org/2000/svg"
    xmlns:xlink="http://www.w3.org/1999/xlink">
    <g fill="currentColor" transform="">
        <path d="m9.51109985 8.77794953c.01041356-.02080678.02914576-.03955932.03955932-.06244068.19830509-.40210169.11418305-.88616949-.20823051-1.19762034l-7.60193898-7.23534915c-.19854915-.18837966-.46397288-.28991187-.73759322-.28212203-.27364068.00785084-.5328.1243322-.72028475.32383728-.39152542.41654238-.37492881 1.07463051.04161356 1.4703661l6.81675254 6.49177628-6.79171525 6.58761351c-.29983729.2951594-.39311186.7414984-.23652203 1.1319865.15650847.3904881.53231186.6487932.95298305.6549763.26768135-.0000814.5247661-.1046238.7164-.2915797l7.53113898-7.30399322c.01454237-.01462373.02082712-.03543051.03536949-.05005424l.03335593-.02914576c.05831187-.06246102.08955255-.13745085.12911187-.20825085"/>
        <path d="m17.5111291 8.77794953c.0104136-.02080678.0291661-.03955932.0395797-.06244068.1983051-.40210169.1140814-.88616949-.2083119-1.19762034l-7.60185759-7.23534915c-.19854916-.18837966-.46399322-.28991187-.73761356-.28212203-.27362034.00785084-.53286102.1243322-.72028475.32383728-.39160678.41654238-.37492881 1.07463051.0416339 1.4703661l6.8167322 6.49177628-6.79177627 6.58761351c-.29977627.2951594-.39305084.7414984-.23652203 1.1319865.15658983.3904881.53229152.6487932.95298305.6549763.26774237-.0000814.5247661-.1046238.71648136-.2915797l7.53105759-7.30399322c.0146238-.01462373.0208068-.03543051.0354305-.05005424l.033295-.02914576c.0583118-.06246102.0896135-.13745085.1291728-.20825085"/>
    </g>
</svg>
