<?xml version="1.0" encoding="UTF-8"?>
<svg viewBox="0 0 32 32" version="1.1"
    xmlns="http://www.w3.org/2000/svg"
    xmlns:xlink="http://www.w3.org/1999/xlink">
    <g stroke="none" stroke-width="1" fill="none" fill-rule="evenodd">
        <g transform="translate(-567.000000, -825.000000)" fill="currentColor" fill-rule="nonzero">
            <g  transform="translate(487.000000, 205.000000)">
                <g  transform="translate(0.000000, 601.000000)">
                    <g  transform="translate(80.000000, 19.000000)">
                        <path d="M29.0344915,25.6833428 L28.0689831,25.6833428 L28.0689831,6.35 C28.0689831,5.81638867 27.6364235,5.38334277 27.1034463,5.38334277 L5.86206214,5.38334277 L5.86206214,2.96665723 C5.86206214,2.43307422 5.42950258,2 4.89655367,2 C4.36360477,2 3.93101693,2.43307422 3.93101693,2.96665723 L3.93101693,5.38334277 L2.96550846,5.38334277 C2.43253127,5.38334277 2,5.81638867 2,6.35 C2,6.88361133 2.43253127,7.31665723 2.96550846,7.31665723 L3.93101693,7.31665723 L3.93101693,26.65 C3.93101693,27.1836113 4.36357648,27.6166572 4.89655367,27.6166572 L26.1379379,27.6166572 L26.1379379,30.0333428 C26.1379379,30.5669258 26.5704974,31 27.1034463,31 C27.6363952,31 28.0689831,30.5669258 28.0689831,30.0333428 L28.0689831,27.6166572 L29.0344915,27.6166572 C29.5674687,27.6166572 30,27.1836113 30,26.65 C30,26.1163887 29.5674687,25.6833428 29.0344915,25.6833428 Z M6,26 L6,8 L26,8 L26,26 L6,26 Z" ></path>
                        <path d="M9.748497,12.981171 C9.748497,13.9676299 10.5481799,14.7673129 11.5346388,14.7673129 C12.5210977,14.7673129 13.3207807,13.9676299 13.3207807,12.981171 C13.3207807,11.9947121 12.5210977,11.1950292 11.5346388,11.1950292 C10.5481799,11.1950292 9.748497,11.9947121 9.748497,12.981171 Z M24.0113105,22.607156 L21.359773,15.5242054 C21.2936821,15.3482508 21.1427667,15.2326048 20.9516368,15.2120659 C20.7609779,15.191527 20.5881631,15.2727931 20.4841078,15.4304327 L17.4847428,20.0096476 C17.3480869,20.2177319 17.0783858,20.2909657 16.8515679,20.1811281 L11.7141387,17.6854249 C11.4877394,17.5755874 11.2175935,17.6483763 11.0814086,17.8564606 L8.03065693,22.5133833 C7.93107579,22.6656593 7.92482254,22.8442826 8.0137025,23.0027856 C8.10258246,23.1612887 8.2606407,23.251503 8.44549113,23.251503 L23.5504796,23.251503 C23.7161516,23.251503 23.8577002,23.1796298 23.9528073,23.0465584 C24.0474695,22.913487 24.0680346,22.7589871 24.0113105,22.607156 Z" ></path>
                    </g>
                </g>
            </g>
        </g>
    </g>
</svg>
