<?xml version="1.0" encoding="UTF-8"?>
<svg viewBox="0 0 32 32" version="1.1" xmlns="http://www.w3.org/2000/svg" xmlns:xlink="http://www.w3.org/1999/xlink">
    <!-- Generator: Sketch 52.2 (67145) - http://www.bohemiancoding.com/sketch -->
    <g  stroke="none" stroke-width="1" fill="none" fill-rule="evenodd" opacity="0.600000024">
        <g  transform="translate(-809.000000, -762.000000)" fill="#FFFFFF">
            <g >
                <g transform="translate(323.000000, 205.000000)">
                    <g  transform="translate(403.000000, 553.000000)">
                        <g  transform="translate(83.000000, 4.000000)">
                            <path d="M16.0000186,13.426881 L6.81024849,4.23711085 C6.07506739,3.50192974 4.97229195,3.50192974 4.23711085,4.23711085 C3.50192974,4.97229195 3.50192974,6.25886078 4.23711085,6.81024849 L13.426881,16.0000186 L4.23711085,25.1897887 C3.50192974,25.9249699 3.50192974,27.0277453 4.23711085,27.7629264 C4.97229195,28.4981075 6.07506739,28.4981075 6.81024849,27.7629264 L16.0000186,18.5731563 L25.1897887,27.7629264 C25.9249699,28.4981075 27.0277453,28.4981075 27.7629264,27.7629264 C28.4981075,27.0277453 28.4981075,25.9249699 27.7629264,25.1897887 L18.5731563,16.0000186 L27.7629264,6.81024849 C28.4981075,6.07506739 28.4981075,4.97229195 27.7629264,4.23711085 C27.0277453,3.50192974 25.9249699,3.50192974 25.1897887,4.23711085 L16.0000186,13.426881 Z" ></path>
                        </g>
                    </g>
                </g>
            </g>
        </g>
    </g>
</svg>
