<svg viewBox="0 0 16 14" xmlns="http://www.w3.org/2000/svg"><g fill="none" fill-rule="evenodd" transform="translate(-2 -3)"><path d="m0 0h20v20h-20z"/><path d="m8.54569717 3c.80323314 0 .93848755.4957358 1.45458943 1.45458942l.5034201.72732158h6.0416322c.3858092 0 .7558019.15323817 1.0286214.42605765.2727299.27272992.4260397.64272265.4260397 1.02853177v8.72698128c0 .3857554-.1533098.7557481-.4260397 1.0285496-.2728195.2728195-.6428122.4260398-1.0286214.4260398h-13.09074948c-.38573747 0-.7557302-.1532203-1.02854968-.4260398-.27280156-.2728015-.42603974-.6427942-.42603974-1.0285496v-10.90889228c0-.8033227.65126672-1.45458942 1.45458942-1.45458942zm-2.64827092 9.3381606 2.66743689-3.18989752v-.86384774h-3.91401287v.91933949h2.45872488l-2.66799217 3.18989757v.8638298h4.19345984v-.9193216zm3.3111447.9193216h1.09348115v-4.97306686h-1.09348115zm4.19983655-1.7831693c.3113664 0 .5761254-.0452639.794295-.1358813.201583-.0792612.3833552-.2016367.5327422-.3585111.1371352-.1486885.236637-.3189969.2998131-.5116955.1255997-.3836417.1255997-.79728629 0-1.18092805-.0622626-.18906241-.1645587-.36245172-.2998131-.50847131-.149387-.15687434-.3311592-.27924993-.5327422-.35852897-.2181696-.0905995-.4829286-.13588133-.794295-.13588133h-2.2425077v4.97306686h1.0934811v-1.7831693zm-.2991861-2.34011083c.1250445 0 .24622.00958298.3623801.02805038.1154436.01853904.2181516.05423789.3061718.10783095.0897039.0552768.1631078.13342738.2125094.22648083.053593.09762105.0803896.22524489.0803896.38279989 0 .15819988-.0267966.28582368-.0803896.38344468-.0494733.0928386-.1228055.1708637-.2125094.2258539-.0940386.0556888-.1980006.0925699-.3061718.1084579-.1199396.0186824-.2410613.0278355-.3623801.0274235l-.8498405.0000133v-1.49035533z" fill="#fff"/></g></svg>
