<svg  viewBox="0 0 72 72" xmlns="http://www.w3.org/2000/svg"><g fill="none" fill-rule="evenodd"><g fill="#e62465"><rect height="72" opacity=".1" rx="4" width="72"/><rect height="56" opacity=".25" rx="4" width="56" x="8" y="8"/><rect height="40" rx="4" width="40" x="16" y="16"/></g><g transform="translate(24 24)"><path d="m0 0h24v24h-24z"/><path d="m10.2548366 3.6c.9638798 0 1.1261851.59488296 1.7455073 1.7455073l.6041041.8727859h7.2499587c.462971 0 .9069622.18388581 1.2343456.51126918.3272759.32727591.5112477.77126717.5112477 1.23423812v10.4723775c0 .4629065-.1839718.9068977-.5112477 1.2342596-.3273834.3273834-.7713746.5112477-1.2343456.5112477h-15.7088994c-.46288497 0-.90687623-.1838643-1.23425961-.5112477-.32736188-.3273619-.51124769-.7713531-.51124769-1.2342596v-13.0906707c0-.96398723.78152007-1.7455073 1.7455073-1.7455073zm-3.1779251 11.2057928 3.2009243-3.8278771v-1.0366173h-4.69681548v1.1032074h2.95046986l-3.2015906 3.8278771v1.0365958h5.03215182v-1.1031859zm3.9733736 1.1031859h1.3121774v-5.9676803h-1.3121774zm5.0398039-2.1398032c.3736396 0 .6913505-.0543167.953154-.1630576.2418996-.0951134.4600262-.2419641.6392907-.4302133.1645622-.1784262.2839644-.3827963.3597756-.6140346.1507198-.4603701.1507198-.9567436 0-1.4171137-.074715-.2268749-.1974703-.434942-.3597756-.6101655-.1792645-.1882492-.3973911-.3351-.6392907-.4302348-.2618035-.10871939-.5795144-.1630576-.953154-.1630576h-2.6910092v5.9676803h1.3121773v-2.1398032zm-.3590233-2.808133c.1500534 0 .2954639.0114996.434856.0336604.1385324.0222469.2617821.0650855.3674063.1293972.1076446.0663321.1957293.1601128.2550112.271777.0643117.1171452.0964675.2702938.0964675.4593598 0 .1898398-.0321558.3429885-.0964675.4601337-.0593679.1114062-.1473666.2050365-.2550112.2710247-.1128464.0668265-.2376007.1110838-.3674063.1301495-.1439274.0224188-.2892735.0334025-.434856.0329081l-1.0198086.000016v-1.7884264z" fill="#fff"/></g></g></svg>
