<svg viewBox="0 0 24 24" xmlns="http://www.w3.org/2000/svg"><g fill="none" fill-rule="evenodd" transform=""><rect fill="#e62465" height="24" rx="4" width="24"/><path d="m9.95480325 5c.85343525 0 .99714305.52671928 1.54550125 1.54550126l.5348839.77277918h6.4192342c.4099222 0 .8030395.16281556 1.0929102.45268625.2897755.28977554.4526672.68289281.4526672 1.09281501v9.2724176c0 .4098651-.1628917.8029823-.4526672 1.092834-.2898707.2898707-.682988.4526672-1.0929102.4526672h-13.90892134c-.40984607 0-.80296334-.1627965-1.09283403-.4526672-.28985167-.2898517-.45266723-.6829689-.45266723-1.092834v-11.59069804c0-.85353037.69197089-1.54550126 1.54550126-1.54550126zm-2.40796978 10.3071044 2.83415173-3.3892662v-.9178382h-4.15863871v.9767982h2.61239518l-2.83474167 3.3892662v.9178192h4.4555511v-.9767792zm3.45316653.9767792h1.1618237v-5.2838836h-1.1618237zm4.3826644-1.8946174c.3308268 0 .6121332-.048093.8439385-.144374.2141819-.0842149.4073148-.214239.5660386-.3809179.1457061-.1579816.2514268-.3389343.3185513-.5436765.1334498-.4076194.1334498-.8471167 0-1.2547361-.0661539-.2008788-.1748435-.3851049-.3185513-.5402508-.1587238-.1666789-.3518567-.296703-.5660386-.380937-.2318053-.0962619-.5131117-.1443739-.8439385-.1443739h-2.3826644v5.2838836h1.1618237v-1.8946174zm-.4797089-2.3892662c.1328598 0 .2616087.0101819.3850288.0298035.1226589.0196978.2317862.0576278.3253076.1145704.0953104.0587316.173302.1417666.2257912.2406359.0569426.1037224.085414.2393227.085414.4067249 0 .1680873-.0284714.3036876-.085414.40741-.0525653.0986409-.1304808.1815427-.2257912.2399698-.099916.0591693-.2103756.0983554-.3253076.1152365-.1274357.01985-.2561276.0295751-.3850288.0291374l-.9029555.0000141v-1.5835025z" fill="#fff"/></g></svg>
