<svg viewBox="0 0 72 72"
    xmlns="http://www.w3.org/2000/svg"
    xmlns:xlink="http://www.w3.org/1999/xlink">

        <g fill="#0278ff">
					<rect height="72" opacity=".101172" rx="4" width="72"/>
					<rect height="56" opacity=".251451" rx="4" width="56" x="8" y="8"/>
					<rect height="40" rx="4" width="40" x="16" y="16"/>
        </g>
        <path d="m7.69371682 22.0409848.34129821.8891122c.20018154.5214907-.06029103 1.1065217-.58178176 1.3067032-.52149073.2001816-1.1065217-.060291-1.30670323-.5817817l-1.54980743-4.0373864c-.20018154-.5214907.06029103-1.1065217.58178176-1.3067032.52149073-.2001816 1.1065217.060291 1.30670324.5817817l.47959467 1.2493869 2.35603296-.6312972-.98387065-3.0280425h-6.2998522c-.46234059 0-.83711239-.3748729-.83711239-.8371124l.01098403-.4851785v-2.6212988-6.90205571c0-.46234059.37479202-.83711239.83711239-.83711239h3.55957352 8.22746176 2.2629525c.4623406 0 .8370315.37479203.8370315.83711239v2.30990265l2.6277517-.88942306c.4623203 0 .8370921.37479202.8371326.83711239v6.20172783c0 .4622597-.374792.8370315-.8371124.8370315l-2.6277517-.8893422v1.3234439.27808c0 .4622597-.3747111.8371124-.8370315.8371124h-4.5363833-1.0978154l1.0124532 3.1160105c.0727414.0987387.128623.2124636.1622813.3380777.1445743.5395587-.1756238 1.094158-.7151824 1.2387323zm-1.65945495-10.6067229c.99411255 0 1.8-.8058875 1.8-1.80000003 0-.99411255-.80588745-1.8-1.8-1.8s-1.8.80588745-1.8 1.8c0 .99411253.80588745 1.80000003 1.8 1.80000003z" fill="#fff" fill-rule="nonzero" mask="url(#a)" transform="matrix(.93358043 .35836795 -.35836795 .93358043 29.932347 21.096172)"/>
</svg>
