<svg viewBox="0 0 64 59"
    xmlns="http://www.w3.org/2000/svg">
    <path d="m32.8138202 24.3736907c-7.172457 0-13.0055422 5.833229-13.0055422 13.0054703 0 7.172457 5.8330852 13.0055422 13.0055422 13.0055422 7.1724571 0 13.0052545-5.8330852 13.0052545-13.0055422 0-7.1722413-5.8328694-13.0054703-13.0052545-13.0054703zm0 21.6759517c-4.7815901 0-8.6706253-3.8886755-8.6706253-8.6704814 0-4.7818779 3.8890352-8.6706973 8.6706253-8.6706973s8.6701936 3.8888194 8.6701936 8.6706973c0 4.7818059-3.8886035 8.6704814-8.6701936 8.6704814zm6.5027352 10.8373642h-28.178543c-1.19424624 0-2.16745843-.9710536-2.16745843-2.1674584v-34.6809903c0-1.1942463.97321219-2.1674585 2.16745843-2.1674585h6.5027352c1.1963328 0 2.1675304-.9708378 2.1675304-2.1673145 0-1.1964768-.9711976-2.1678182-2.1675304-2.1678182h-6.5027352c-3.58518519 0-6.50273509 2.9177657-6.50273509 6.5025912v34.6809903c0 3.5848975 2.9175499 6.5032388 6.50273509 6.5032388l28.178543-.0000001c1.1983475 0 2.1674585-.9691109 2.1674585-2.1681779-.0000001-1.1983476-.969111-2.1676024-2.1674585-2.1676024zm-4.3356364-39.0159072h21.6757358c1.1964048 0 2.1671707.9732122 2.1671707 2.1674585v17.340603c0 1.1989951.9691109 2.1677463 2.168178 2.1677463 1.1987072 0 2.1670986-.9687512 2.1670986-2.1677463v-17.340603c0-3.5848255-2.9175499-6.5025913-6.5024473-6.5025913h-21.6757358c-1.1959732 0-2.1671707.9713415-2.1671707 2.1678182s.9711975 2.1673146 2.1671707 2.1673146zm20.7231017 3.1199486c-.6015841-.6022316-1.4470829-.9524901-2.2989133-.9524901-.850967 0-1.6965378.3502585-2.2988414.9524901-.6018719.6017281-.9519146 1.4476586-.9519146 2.2990573 0 .8508951.3500427 1.6973292.9519146 2.2990572.6023036.6017281 1.4478744.9518427 2.2988414.9518427.8518304 0 1.6973292-.3500427 2.2989133-.9518427.6022317-.601728.9526341-1.4481621.9526341-2.2990572.0000719-.8513268-.3504024-1.6972573-.9526341-2.2990573zm-22.8902005-11.76467149c0 1.22043659-.989617 2.20990969-2.2098377 2.20990969h-9.9402045c-1.2202927 0-2.20955-.9894731-2.20955-2.20990969 0-1.22029263.9892573-2.20990971 2.20955-2.20990971h9.9401326c1.2202926.00000007 2.2099096.98961707 2.2099096 2.20990971zm23.8429065 56.05136519c-1.2205804 0-2.2102694-.9896171-2.2102694-2.2105573v-16.8806189c0-1.2209402.989689-2.2099817 2.2102694-2.2099817 1.2202927 0 2.20955.9890415 2.20955 2.2099817v16.8806189c0 1.2209402-.9892573 2.2105573-2.20955 2.2105573zm-10.6509386-10.650507c0-1.2209402.9892573-2.2099816 2.2102694-2.2099816h16.8806189c1.221372 0 2.2105572.9890414 2.2105572 2.2099816 0 1.2202927-.9891853 2.2091903-2.2105572 2.2091903l-16.8806189-.0000001c-1.2210122 0-2.2102694-.9888975-2.2102694-2.2091902z"/>
</svg>
