<svg viewBox="0 0 24 24" xmlns="http://www.w3.org/2000/svg"><g fill="none" fill-rule="evenodd" transform=""><rect fill="#0278ff" height="24" rx="4" width="24"/><path d="m9.07604338 20.7442691.19007099.4951519c.16681795.4345756-.05024252.9221014-.48481813 1.0889193-.43457561.166818-.92210142-.0502425-1.08891936-.4848181l-1.29150619-3.3644887c-.16681795-.4345756.05024252-.9221014.48481813-1.0889193.43457561-.166818.92210142.0502425 1.08891936.4848181l.49400642 1.2869307 1.6351459-.438136-.86239867-2.6541904h-5.19910652c-.38528383 0-.69759367-.3123941-.69759367-.6975936l.00915336-.4043154v-2.1844157-5.75171311c0-.38528383.31232669-.69759367.69759366-.69759367h2.96631127 6.85621817 1.8857937c.3852838 0 .6975262.31232669.6975262.69759367v1.92491887l2.1897931-.74118589c.385267 0 .6975768.31232669.6976105.69759366v5.16810657c0 .3852164-.3123266.6975262-.6975936.6975262l-2.1897931-.7411185v1.1028699.2317334c0 .3852164-.3122593.6975936-.6975262.6975936h-3.7803195-.9656164l.7370326 2.2683532c.339416.0332508.6385867.2720677.7320638.6209293.1204786.4496322-.1463531.9117982-.5959853 1.0322768zm-1.23138174-8.410364c.82842713 0 1.5-.6715729 1.5-1.5s-.67157287-1.49999998-1.5-1.49999998c-.82842712 0-1.5.67157288-1.5 1.49999998s.67157288 1.5 1.5 1.5z" fill="#fff" fill-rule="nonzero"/></g></svg>
