<?xml version="1.0" encoding="UTF-8"?>
<svg viewBox="0 0 32 32" version="1.1"
    xmlns="http://www.w3.org/2000/svg"
    xmlns:xlink="http://www.w3.org/1999/xlink">
    <!-- Generator: Sketch 52.2 (67145) - http://www.bohemiancoding.com/sketch -->
    <g  stroke="none" stroke-width="1" fill="none" fill-rule="evenodd">
        <g  transform="translate(-753.000000, -762.000000)" fill="#FFFFFF" fill-rule="nonzero">
            <g >
                <g  transform="translate(323.000000, 205.000000)">
                    <g  transform="translate(403.000000, 553.000000)">
                        <g  transform="translate(27.000000, 4.000000)">
                            <path d="M24.4462023,21.3058618 C26.1475212,23.4061767 27.8137285,25.4554202 29.4703599,27.5110476 C30.0768339,28.2611601 30.166209,29.0751119 29.5884627,29.8731039 C29.0905157,30.562569 28.3467872,30.7413192 27.5839068,30.4700019 C27.1785269,30.3263634 26.7986827,29.9880147 26.5145976,29.6464742 C25.0973638,27.9483472 23.7184336,26.2183005 22.3235436,24.5042137 C22.1032978,24.2328964 21.8670922,23.9711551 21.6468464,23.7157976 C15.1767272,27.2588821 8.78640729,24.6223165 5.8529887,20.0450344 C2.70570825,15.1357876 3.65372275,8.56033356 8.04267875,4.79381132 C12.3997151,1.04963286 18.8219547,1.07836057 23.1470713,4.82253903 C27.3253574,8.43903878 28.9468772,15.4102969 24.4462023,21.3058618 Z M15.4703883,21.7112417 C19.888072,21.7559293 23.4535003,18.2447645 23.5588352,13.7472816 C23.6577862,9.46046854 19.9774471,5.66521858 15.693826,5.63649087 C11.2537986,5.60776316 7.67560243,9.15084764 7.63091487,13.6227948 C7.58941929,18.0277106 11.1165439,21.6665542 15.4703883,21.7112417 Z" ></path>
                        </g>
                    </g>
                </g>
            </g>
        </g>
    </g>
</svg>
