<?xml version="1.0" encoding="UTF-8"?>
<svg viewBox="0 0 45 45" version="1.1"
    xmlns="http://www.w3.org/2000/svg"
    xmlns:xlink="http://www.w3.org/1999/xlink">
    <g stroke="none" stroke-width="1" fill="none" fill-rule="evenodd">
        <g  transform="translate(-617.000000, -820.000000)" fill="currentColor" fill-rule="nonzero">
            <g transform="translate(487.000000, 205.000000)">
                <g  transform="translate(0.000000, 601.000000)">
                    <g transform="translate(136.000000, 20.000000)">
                        <path d="M9.77490251,23.2307692 C9.77490251,23.2307692 9.73850251,22.9528314 9.85012918,22.665055 C9.97388918,22.3256265 10.2481025,21.9591421 10.3087692,21.8705955 C10.4446625,21.7058005 11.6992492,20.6481609 12.3593025,20.3603845 C12.5946892,20.2595398 14.0239959,19.7676144 14.4219692,19.4158878 C14.8199425,19.0641611 14.9801025,18.3705463 14.4971959,17.9056768 C14.0118625,17.4531055 13.1431159,15.5124598 13.1431159,15.5124598 C13.1431159,15.5124598 12.2112759,11.9853547 14.1865825,10.5636903 C14.8951692,10.0225723 15.6644225,9.76923077 16.2856492,9.76923077 C17.0063692,9.76923077 17.7756225,9.93402578 18.1978625,10.1480133 C18.9671159,10.539094 19.4281826,11.0925101 19.8018892,11.923864 C20.2605292,12.9175533 20.1489026,14.3170811 19.9499159,15.0721865 C19.7387959,15.8666461 19.2170625,17.1112173 18.4453825,17.9548694 C17.6882625,18.8108195 18.4817825,19.4798381 18.6807692,19.5413288 C19.6004759,19.856161 21.2287692,20.562074 22.0611159,21.2532291 C22.4590892,21.5926577 22.9808226,22.0968812 23.1676759,22.5888066 C23.2429026,22.8027941 23.2162092,23.0044835 23.2307692,23.1545208 L9.77490251,23.2307692 M26.1161141,29 L20.3459095,29 C19.8213455,29 19.3846154,28.5756006 19.3846154,28.0390036 C19.3846154,27.5146019 19.8091463,27.0780071 20.3459095,27.0780071 L26.1161141,27.0780071 C26.6406782,27.0780071 27.0774083,26.6536077 27.0774083,26.1170107 L27.0774083,21.3071503 C27.0774083,20.7827487 27.5019392,20.3461538 28.0387024,20.3461538 C28.5632665,20.3461538 28.9999965,20.7705533 28.9999965,21.3071503 L28.9999965,26.1023762 C29.0024364,27.7024109 27.7166445,29 26.1161141,29 M11.6828197,29 L6.88624189,29 C5.28575611,29 4,27.7024109 4,26.1145716 L4,21.3071503 C4,20.7827487 4.4245191,20.3461538 4.96126738,20.3461538 C5.49801566,20.3461538 5.92253475,20.7705533 5.92253475,21.3071503 L5.92253475,26.1023762 C5.92253475,26.6267778 6.35925267,27.0633726 6.88380213,27.0633726 L11.6925788,27.0633726 C12.2171282,27.0633726 12.6538462,27.4877721 12.6538462,28.0243691 C12.6440871,28.5756006 12.219568,29 11.6828197,29 M4.96099644,12.6538462 C4.43659483,12.6538462 4,12.2288478 4,11.6914935 L4,6.88950042 C4,5.28720771 5.29758911,4 6.88542841,4 L11.6928497,4 C12.2172513,4 12.6538462,4.42499837 12.6538462,4.96235263 C12.6538462,5.4874943 12.2294467,5.92470527 11.6928497,5.92470527 L6.88542841,5.92470527 C6.3610268,5.92470527 5.92443197,6.36191624 5.92443197,6.8870579 L5.92443197,11.7012636 C5.92199289,12.2288478 5.48539806,12.6538462 4.96099644,12.6538462 M28.0389494,12.6538462 C27.5145182,12.6538462 27.0778988,12.228728 27.0778988,11.6912222 L27.0778988,6.88787529 C27.0778988,6.36258557 26.6534754,5.92525134 26.1168481,5.92525134 L20.345666,5.92525134 C19.8212348,5.92525134 19.3846154,5.50013315 19.3846154,4.96262739 C19.3846154,4.43733767 19.8090388,4.00000344 20.345666,4.00000344 L26.1144089,4.00000344 C27.7145338,3.99756023 29,5.29734688 29,6.88787529 L29,11.7034382 C29,12.228728 28.5755766,12.6538462 28.0389494,12.6538462" id="Shape"></path>
                    </g>
                </g>
            </g>
        </g>
    </g>
</svg>
