<?xml version="1.0" encoding="UTF-8"?>
<svg viewBox="0 0 12 15" version="1.1" xmlns="http://www.w3.org/2000/svg" xmlns:xlink="http://www.w3.org/1999/xlink">
    <g id="Page-1" stroke="none" stroke-width="1" fill="none" fill-rule="evenodd">
        <g id="切换展示摄像头/告警设置" transform="translate(-1777.000000, -780.000000)" fill="#0278FF" fill-rule="nonzero">
            <g id="定位" transform="translate(1777.000000, 780.000000)">
                <g id="Group">
                    <path d="M5.78034002,4.45770864 C6.59724888,4.45889755 7.25851445,5.1220962 7.25733081,5.93900232 C7.2561419,6.75591122 6.59294325,7.41717678 5.77603713,7.41599315 C4.95912823,7.41480423 4.29786267,6.75160558 4.2990463,5.93469947 C4.29961374,5.54480714 4.45409922,5.17090776 4.7289022,4.89432377 C5.0070918,4.61433087 5.38564633,4.45713349 5.78034281,4.4577086 L5.78034002,4.45770864 Z M3.40485062,5.94937646 C3.40684306,7.26331999 4.47361955,8.32686005 5.78757004,8.32486877 C7.10151357,8.32287633 8.16505364,7.25609984 8.16306235,5.94214934 C8.1621061,5.31153844 7.91082495,4.70710389 7.46443721,4.2616714 C7.01864962,3.81404432 6.41208315,3.56371605 5.78035267,3.56665145 C4.4663994,3.56864947 3.40285933,4.63542596 3.40485062,5.94937646 Z" id="Shape"></path>
                    <path d="M9.86136148,1.73109558 L9.86136133,1.73109543 C7.68264424,-0.52278921 4.08932065,-0.583725335 1.83543601,1.59498326 C1.78929904,1.63958137 1.74392182,1.68495873 1.69932357,1.73109571 C-0.551539251,4.05903381 -0.551539251,7.75231158 1.69932349,10.0802498 L5.78034495,14.2592759 L9.86136641,10.0802498 C12.1122294,7.75231153 12.1122294,4.05903375 9.86136635,1.73109557 L9.86136148,1.73109558 Z M9.24653604,9.49215207 L5.78034838,13.0563583 L2.31416072,9.49215207 L2.31416004,9.49215137 C0.400423181,7.51862025 0.400423181,4.38183021 2.31416138,2.40828516 L2.31416121,2.40828533 C4.17147367,0.493963625 7.22900218,0.447746304 9.14332389,2.30506753 C9.1782477,2.33895141 9.21265753,2.37336111 9.24654141,2.40828505 L9.24654178,2.40828543 C11.1602786,4.38181656 11.1602786,7.51860659 9.24654106,9.49215164 L9.24653604,9.49215207 Z" id="Shape"></path>
                </g>
            </g>
        </g>
    </g>
</svg>
