<?xml version="1.0" encoding="UTF-8"?>
<svg viewBox="0 0 240 240" version="1.1" xmlns="http://www.w3.org/2000/svg" xmlns:xlink="http://www.w3.org/1999/xlink">
    <defs>
        <polygon id="path-1" points="0.0141073171 0.0281834862 192.687553 0.0281834862 192.687553 179.199765 0.0141073171 179.199765"></polygon>
    </defs>
    <g id="Page-1" stroke="none" stroke-width="1" fill="none" fill-rule="evenodd" opacity="0.300000012">
        <g id="空页面-全部视频没有数据" transform="translate(-840.000000, -406.000000)">
            <g id="Group-5" transform="translate(780.000000, 406.000000)">
                <g id="缺省页" transform="translate(60.000000, 0.000000)">
                    <rect id="Rectangle-28" x="0" y="0" width="240" height="240"></rect>
                    <g id="Group-4" transform="translate(36.000000, 30.400000)">
                        <mask id="mask-2" fill="white">
                            <use xlink:href="#path-1"></use>
                        </mask>
                        <g id="Clip-2" opacity="0.600000024"></g>
                        <path d="M147.769444,80.5951413 L147.769444,18.0658495 C147.769444,8.14479266 139.6441,0.0281834862 129.712078,0.0281834862 L18.057601,0.0281834862 C8.12557951,0.0281834862 0,8.14479266 0,18.0658495 L0,161.162099 C0,171.083156 8.12557951,179.199765 18.057601,179.199765 L130.013269,179.199765 C139.94435,179.199765 148.07087,171.083156 148.07087,161.162099 L148.07087,156.353057 L143.555823,156.353057 L143.555823,161.162099 C143.555823,168.677695 137.537172,174.690642 130.013269,174.690642 L18.057601,174.690642 C10.5336985,174.690642 4.51410634,168.677695 4.51410634,161.162099 L4.51410634,18.0658495 C4.51410634,10.5502532 10.5336985,4.53730642 18.057601,4.53730642 L130.013269,4.53730642 C137.537172,4.53730642 143.555823,10.5502532 143.555823,18.0658495 L143.555823,80.5951413 L147.769444,80.5951413 Z" id="Fill-1" fill="#A9AAAD" mask="url(#mask-2)"></path>
                        <path d="M191.107357,169.580506 L171.545446,149.438239 C170.03996,147.935589 167.933032,147.634495 166.127531,147.935589 L161.011747,142.523655 C167.030164,136.511648 170.642578,128.09418 170.642578,118.775075 C170.642578,100.135457 155.895023,85.1042642 137.837422,85.1042642 C119.780762,85.1042642 105.033443,100.135457 105.033443,118.775075 C105.033443,137.413519 119.780762,152.444712 137.837422,152.444712 C145.061074,152.444712 151.682108,150.039251 157.099083,146.130906 L162.516058,151.84276 C161.914616,153.646503 162.215807,155.751105 163.720117,157.254694 L183.282263,177.396022 C184.486323,178.598752 185.990633,178.899846 187.194693,178.899846 C188.699238,178.899846 189.903298,178.297894 191.107357,177.396022 C193.214285,175.29142 193.214285,171.985028 191.107357,169.580506 Z M137.837422,148.235508 C121.886749,148.235508 109.247299,135.008059 109.247299,118.775075 C109.247299,102.540917 122.188176,89.3134679 137.837422,89.3134679 C153.487845,89.3134679 166.428722,102.540917 166.428722,118.775075 C166.428722,135.008059 153.788096,148.235508 137.837422,148.235508 Z M130.31352,97.4300771 C125.197737,99.5346789 120.984116,103.442789 118.275511,108.253006 C116.771201,111.559398 115.868333,115.16665 115.868333,118.775075 C115.868333,119.976866 116.771201,120.878738 117.97526,120.878738 C119.17838,120.878738 120.081248,119.976866 120.081248,118.775075 C120.081248,115.768602 120.68363,112.762128 122.188176,110.056514 C124.295103,105.847545 127.60515,102.842011 132.120197,101.037328 C133.323316,100.737409 133.624507,99.5346789 133.323316,98.3319486 C132.721639,97.4300771 131.51758,97.1299229 130.31352,97.4300771 Z M148.973739,98.9336661 C146.565384,97.4300771 144.158206,96.8290642 141.449836,96.2282862 C140.245541,95.9271927 139.342908,96.8290642 139.041482,97.7309358 C138.740291,98.9336661 139.6441,99.8355376 140.546968,100.135457 C142.652955,100.43655 144.759883,101.338187 146.565384,102.240059 C146.866811,102.240059 147.168002,102.540917 147.769444,102.540917 C148.371121,102.540917 148.973739,102.240059 149.57518,101.639281 C150.176858,100.737409 149.876372,99.5346789 148.973739,98.9336661 Z M20.4647795,154.248455 L17.1547327,151.241982 C17.7564098,150.34011 34.9109073,132.002525 41.2307502,127.192308 C47.2503424,122.382327 54.1716273,117.271251 64.4050751,126.290672 C67.1134449,128.695193 69.8220498,129.597064 71.9289776,129.295971 C75.5402156,128.394334 77.9476293,124.486928 78.8502624,122.682246 C81.2586166,117.873204 88.4810927,102.842011 100.820528,107.050275 L99.315042,110.958385 C91.4908888,108.253006 86.0729737,117.271251 82.7629268,124.18607 C81.2586166,127.192308 78.2488205,132.302444 72.8318459,133.505174 C69.2194322,134.407046 65.3079434,132.904396 61.395279,129.597064 C53.8713766,123.284198 49.9587122,126.290672 43.9393551,130.799794 C37.9207034,135.308917 20.7659707,153.947361 20.4647795,154.248455 Z" id="Fill-3" fill="#BFBFBF" mask="url(#mask-2)"></path>
                    </g>
                    <path d="M116.81356,104.200428 L137.007251,104.200428 C138.213052,104.200428 139.117226,105.100202 139.117226,106.299745 C139.117226,107.499991 138.213052,108.4 137.007251,108.4 L116.81356,108.4 C115.608701,108.4 114.703585,107.499991 114.703585,106.299745 C114.4029,105.399736 115.307074,104.200428 116.81356,104.200428 Z M116.81356,84.4 L155.090967,84.4 C156.295826,84.4 157.2,85.3000088 157.2,86.4993174 C157.2,87.6995635 156.295826,88.5995723 155.090967,88.5995723 L116.81356,88.5995723 C115.608701,88.5995723 114.703585,87.6995635 114.703585,86.4993174 C114.4029,85.3000088 115.307074,84.4 116.81356,84.4 Z M70.4,97.2998916 L90.592749,97.2998916 L90.592749,92.800082 L70.4,92.800082 L70.4,97.2998916 Z M70.4,106.599982 L90.592749,106.599982 L90.592749,102.100173 L70.4,102.100173 L70.4,106.599982 Z" id="Fill-5" fill="#A9AAAD"></path>
                    <path d="M82.2004688,78.9081755 C94.5008203,78.9081755 104.400446,88.5490125 104.400446,100.298967 C104.400446,112.047979 94.5008203,121.688816 82.2004688,121.688816 C69.9003516,121.688816 59.9995541,112.047979 59.9995541,100.298967 C59.7002544,88.5490125 69.9003516,78.9081755 82.2004688,78.9081755 Z M82.2004688,76.8 C68.7001058,76.8 57.6,87.3446434 57.6,100.599529 C57.6,113.554794 68.7001058,124.4 82.2004688,124.4 C95.7001286,124.4 106.8,113.855592 106.8,100.599529 C106.5007,87.3446434 95.7001286,76.8 82.2004688,76.8 Z" id="Fill-6" fill="#BFBFBF"></path>
                    <path d="M81.899873,127.6 C72.299594,127.6 63.6002567,122.49981 58.8,114.400115 L64.5002609,111.099674 C68.1000432,117.100091 74.7000739,121.000057 81.899873,121.000057 C92.9996903,121.000057 102.299734,111.999667 102.299734,100.599531 C102.299734,89.2005677 93.2999261,80.1999427 81.899873,80.1999427 C80.9998689,80.1999427 79.7996289,80.1999427 78.8996247,80.5001745 L77.9996205,73.9002318 C79.1998605,73.6 80.6996331,73.6 82.2001088,73.6 C97.2001786,73.6 109.2,85.5996615 109.2,100.599531 C109.2,115.599401 96.8999428,127.6 81.899873,127.6 Z" id="Fill-7" fill="#BFBFBF"></path>
                </g>
            </g>
        </g>
    </g>
</svg>
