<?xml version="1.0" encoding="UTF-8"?>
<svg viewBox="0 0 36 32" version="1.1" xmlns="http://www.w3.org/2000/svg" xmlns:xlink="http://www.w3.org/1999/xlink">
    <g id="11.16-更新" stroke="none" stroke-width="1" fill="none" fill-rule="evenodd" opacity="0.800000012">
        <g id="数据查看" transform="translate(-142.000000, -892.000000)" fill="#B7B7B7">
            <g id="内容-copy-2" transform="translate(24.000000, 768.000000)">
                <g id="Group-14" transform="translate(16.000000, 72.000000)">
                    <g id="Group-5-Copy" transform="translate(102.000000, 52.000000)">
                        <path d="M14.7278186,0 C16.5350932,0 16.8394156,1.11339013 18.0006448,3.26691258 L19.1333401,4.90042922 L32.7270126,4.90042922 C33.5950831,4.90042922 34.4275668,5.24459212 35.0414106,5.85732681 C35.6550529,6.46986035 36,7.30083977 36,8.1673418 L36,27.7675702 C36,28.6339515 35.6550529,29.4649309 35.0414106,30.0776254 C34.4275668,30.6903601 33.5950831,31.0344828 32.7270126,31.0344828 L3.2728262,31.0344828 C2.40491688,31.0344828 1.57243325,30.6903601 0.958589421,30.0776254 C0.344785894,29.4649309 0,28.6339515 0,27.7675702 L0,3.26691258 C0,1.46270241 1.46535013,0 3.2728262,0 L14.7278186,0 Z M9.62858853,21.7873708 L15.6303215,14.6230698 L15.6303215,12.6829243 L6.82379256,12.6829243 L6.82379256,14.7477006 L12.3559235,14.7477006 L6.35294118,21.9120016 L6.35294118,23.8521069 L15.7882258,23.8521069 L15.7882258,21.7873708 L9.62858853,21.7873708 Z M16.9411765,23.8521069 L19.401509,23.8521069 L19.401509,12.6829243 L16.9411765,12.6829243 L16.9411765,23.8521069 Z M26.2221129,19.8472253 C26.9226872,19.8472253 27.518395,19.7455655 28.0092766,19.5420448 C28.4628383,19.3640295 28.8718258,19.0891819 29.2079467,18.7368524 C29.5165008,18.4029078 29.7403799,18.0204062 29.882526,17.5876178 C30.1651255,16.7259836 30.1651255,15.796965 29.882526,14.9353307 C29.7424353,14.5107089 29.5122691,14.1212879 29.2079467,13.7933375 C28.8718258,13.441008 28.4628383,13.1661604 28.0092766,12.9881049 C27.518395,12.7846243 26.9226872,12.6829243 26.2221129,12.6829243 L21.1764706,12.6829243 L21.1764706,23.8521069 L23.6368031,23.8521069 L23.6368031,19.8472253 L26.2221129,19.8472253 Z M25.2062587,14.796745 C25.4876088,14.796745 25.7602537,14.8182678 26.0216139,14.8597443 C26.281362,14.9013818 26.5124552,14.9815591 26.7105005,15.1019256 C26.9123343,15.2260737 27.077493,15.4015947 27.1886466,15.6105867 C27.309231,15.8298372 27.3695232,16.116472 27.3695232,16.4703302 C27.3695232,16.8256367 27.309231,17.1122715 27.1886466,17.3315219 C27.0773318,17.5400311 26.9123343,17.7152706 26.7105005,17.838775 C26.4989136,17.9638484 26.2649993,18.0466808 26.0216139,18.0823643 C25.7517499,18.1243236 25.479226,18.1448809 25.2062587,18.1439556 L23.2941176,18.1439855 L23.2941176,14.796745 L25.2062587,14.796745 Z" id="报文压缩"></path>
                    </g>
                </g>
            </g>
        </g>
    </g>
</svg>
