<svg viewBox="0 0 72 73" xmlns="http://www.w3.org/2000/svg"><g fill="none" fill-rule="evenodd"><circle cx="36" cy="35.823529" fill="#fff" r="35.294118"/><g fill-rule="nonzero" transform="translate(-4 -3)"><path d="m0 0h80v80h-80z" fill="#000" opacity="0"/><path d="m40.000436 75.3623188c11.0356281 0 20.8651906-5.1547544 27.2459408-13.1881823-1.3937605-1.4981728-3.6609199-1.9775276-5.6375012-2.9057062-2.8613941-1.3404285-6.0394438-2.9011743-8.9012342-4.2032004-.8105433-.24735-1.6309946-.4946999-2.4465315-.7417319-.9738252-.7422885-1.9226032-3.2201611-2.4463731-4.4516635-.5190933-.0818934-1.0380282-.1643434-1.556963-.2467934.0788667-1.9067653 1.1416249-2.005912 1.556963-3.461548.3656402-1.2864424.0393937-2.951503.62269-4.1438077.4003575-.8244204 1.3146561-.8295885 1.7693878-1.5329179.4151796-.6436188.6868932-1.7637301.8152992-2.5500662.2373927-1.4390982.4450617-3.4012808-.1727933-4.8292478-.3509766-.8195704-.5733885-.8960573-.6721503-1.8907843-.1186566-1.2031179.3210944-5.132015.3360751-5.9842633.0443873-2.2032514 0-2.3846096-.4796204-4.5275938 0 0-.5831378-1.9450883-1.4975157-2.5332899l-1.8186894-.3462581-1.127199-1.1590704c-4.531941-3.0987522-9.3905247-.9284966-11.9950274.24735-3.7511212 1.3517982-6.1239382 5.4344642-4.4682135 14.1607264.2819384 1.4891089-.731439 2.1534793-.6669982 2.9668481.1433076 1.7805064.1779454 6.0502551 1.6854483 7.1052493.1432283.0989082 1.2157358.3951557 1.205828.3132622.148301 1.7307342.2967606 3.4671931.4449032 5.1979273.3803038 1.1484958 1.2849324 1.2747548 1.5469758 2.9014924l-1.1563678.3127056c-.5240076 1.2315819-1.4780963 3.709375-2.4516044 4.4516635-.8155369.2470319-1.6309947.4943819-2.4464523.7417319-2.8567969 1.3020261-6.034688 2.8627719-8.8962407 4.2032004-1.9761057.9281787-4.2428687 1.4069769-5.6388486 2.9045932 6.3805919 8.0340639 16.2106299 13.1893748 27.2468128 13.1893748z" fill="#979ba5"/></g></g></svg>
