<?xml version="1.0" encoding="UTF-8"?>
<svg width="20px" height="20px" viewBox="0 0 20 20" version="1.1" xmlns="http://www.w3.org/2000/svg" xmlns:xlink="http://www.w3.org/1999/xlink">
    <!-- Generator: Sketch 52.2 (67145) - http://www.bohemiancoding.com/sketch -->
    <title>高级设置_icon_账号管理_nor</title>
    <desc>Created with Sketch.</desc>
    <defs>
        <polygon id="path-1" points="0 0.041009868 20 0.041009868 20 20.0410099 0 20.0410099"></polygon>
    </defs>
    <g id="Page-1" stroke="none" stroke-width="1" fill="none" fill-rule="evenodd">
        <g id="摄像头管理-区域管理-hover" transform="translate(-48.000000, -170.000000)">
            <g id="Group-14" transform="translate(24.000000, 88.000000)">
                <g id="Group-4" transform="translate(0.000000, 60.000000)">
                    <g id="16--账号管理" transform="translate(24.000000, 22.000000)">
                        <g id="Group-15">
                            <mask id="mask-2" fill="white">
                                <use xlink:href="#path-1"></use>
                            </mask>
                            <g id="Clip-2"></g>
                            <path d="M5.41825964,9.63385365 C4.75857491,9.61406638 4.11818531,9.40684352 3.57209791,9.03640138 C1.99592464,9.81534282 0.998790209,11.4216993 1,13.1797514 C1,13.81604 1.98880943,14.2432808 3.31217737,14.458357 C3.28839164,14.3819352 3.27637575,14.3023965 3.27637575,14.2223863 C3.27477637,12.4509445 4.05931565,10.7701756 5.41825964,9.63385365 Z M5.5377624,9.19467897 C5.88698193,9.19547866 6.23333077,9.13170832 6.55940023,9.0065257 C4.84947328,7.60505447 4.50946046,5.12219403 5.77974113,3.31271562 C5.69515827,3.30814302 5.61032936,3.30814302 5.52574651,3.31271562 C4.75016788,3.31905165 4.00877099,3.63318724 3.46475458,4.1861848 C2.92073818,4.73910035 2.61876201,5.48552095 2.62509804,6.2611816 C2.62189927,7.03653467 2.9270537,7.78135589 3.47340766,8.3316263 C4.01976163,8.88181469 4.76232731,9.19234141 5.5377624,9.19467897 Z M18.7207536,14.1148174 L18.7028117,14.1148174 L17.8215712,13.9206562 L17.7767269,13.7683045 C17.723291,13.604183 17.6573677,13.4443881 17.5795925,13.2902935 L17.5108804,13.1588568 L17.9828835,12.3762245 C18.078457,12.2238729 18.1292272,12.0117698 18.0216583,11.9042009 L17.621402,11.5038831 C17.5639062,11.4530924 17.4890017,11.4263335 17.4122722,11.4292247 C17.3176829,11.4293887 17.2251647,11.4574189 17.1464257,11.5098911 L16.3666846,12.0057619 L16.235248,11.9340766 C16.0810509,11.8510932 15.9202307,11.7810893 15.7543458,11.7249468 L15.60792,11.6771293 L15.4108061,10.7570524 C15.3742048,10.5948584 15.2431578,10.4708651 15.0792003,10.4433884 L14.5145969,10.4433884 C14.3622453,10.4433884 14.2487505,10.6286505 14.2158401,10.798862 L13.9978111,11.6771293 L13.8663745,11.7190209 C13.692144,11.7746918 13.5232244,11.8456594 13.361502,11.9311239 L13.2240574,12.0057619 L12.4264565,11.5009099 C12.2849314,11.3977496 12.0930053,11.3977496 11.9514802,11.5009099 L11.5332821,11.9042009 C11.4257132,12.0117698 11.4765039,12.2238729 11.5720569,12.3731693 L12.0530411,13.1916852 L11.9903165,13.3232039 C11.917442,13.4677022 11.8555991,13.6174907 11.8051365,13.7712777 L11.757319,13.9206562 L10.8581571,14.1148174 C10.6945893,14.1491016 10.5695502,14.2812559 10.5444931,14.4464232 L10.5444931,15.0110265 C10.5444931,15.1633577 10.7296732,15.2738998 10.8999667,15.3097014 L11.6736178,15.5039446 L11.7841599,15.5307651 L11.8290042,15.6741561 C11.875776,15.8155171 11.9326567,15.9532898 11.9992977,16.0864078 L12.064975,16.2208997 L11.5750916,17.0363604 C11.4794566,17.188712 11.4286864,17.3978419 11.5362553,17.508384 L11.9335384,17.9057491 C11.9918544,17.957237 12.0679482,17.9840779 12.1456414,17.980387 C12.2327874,17.9787876 12.3180879,17.9550839 12.3936076,17.911675 L12.4174753,17.8937332 L13.2001897,17.4008151 L13.3375727,17.4755351 C13.4993567,17.5662079 13.6694041,17.6411739 13.8454594,17.699572 L13.9888299,17.7444163 L14.2068589,18.5957811 C14.2487505,18.7690273 14.3592926,18.9542074 14.5056158,18.9542074 L15.0731924,18.9542074 C15.231552,18.9542074 15.3719493,18.7750352 15.4047982,18.6137229 L15.6019941,17.7175138 L15.7483378,17.6696963 C15.9159862,17.6217967 16.0789799,17.5587646 16.235248,17.481461 L16.3726926,17.4097757 L17.1673408,17.9176829 C17.2437627,17.9615635 17.3300884,17.9852057 17.4182801,17.986395 C17.4949481,17.9892862 17.5698321,17.9625272 17.6273485,17.911675 L18.0276663,17.5113367 C18.1382084,17.4038498 18.0844649,17.19472 17.9917826,17.0423683 L17.525767,16.259654 L17.5915263,16.1252646 C17.6662668,15.9822837 17.729217,15.8333769 17.7796796,15.680164 L17.8245444,15.5397463 L18.6878226,15.3097014 C18.8641241,15.2708651 19.0493041,15.1573702 19.0493041,15.0110265 L19.0493041,14.4493759 C19.0493041,14.2940715 18.8790311,14.1536537 18.7207536,14.1148174 Z M14.795412,16.8451724 C13.7380546,16.8379546 12.8450442,16.0582135 12.6955017,15.0114161 C12.5459592,13.9646392 13.184893,12.9659669 14.1979598,12.6629655 C14.392039,12.6063309 14.5931719,12.5771729 14.795412,12.5763732 C15.9749994,12.5763732 16.931288,13.5326618 16.931288,14.7122491 C16.931288,15.891939 15.9749994,16.8482071 14.795412,16.8482071 L14.795412,16.8451724 Z" id="Fill-1" fill="#95979D" mask="url(#mask-2)"></path>
                            <g id="Group-3" mask="url(#mask-2)">
                                <g transform="translate(1.000000, 3.041010)"></g>
                            </g>
                            <path d="M14.795412,13.2843676 C14.0084532,13.2826861 13.3691298,13.9193028 13.3674484,14.7063232 C13.3658285,15.4932821 14.0024452,16.1325439 14.7894041,16.1342253 C15.5763629,16.1359067 16.2157068,15.499208 16.2173882,14.7122491 C16.2213866,14.3334 16.073054,13.9687197 15.8056901,13.7002281 C15.5383263,13.4317365 15.1742817,13.2818865 14.795412,13.2843676 Z M10.2248212,15.0110265 L10.2248212,14.4493759 C10.2514161,14.1228143 10.4985006,13.8572139 10.8222735,13.8070793 L11.5183135,13.651775 C11.5712572,13.5037498 11.6330796,13.3590875 11.7034935,13.2186082 L11.3032577,12.5494707 C11.1057337,12.2989209 11.1057337,11.9456209 11.3032577,11.6950711 L11.7005408,11.2948148 C11.8197975,11.1823658 11.9788748,11.1222043 12.1426682,11.1274946 C12.2948558,11.1290939 12.4436806,11.1725234 12.5728822,11.2529232 L13.2061156,11.6562143 C13.3659926,11.5733948 13.5317134,11.5025093 13.7020069,11.4441317 C13.1772857,10.4857516 12.3684685,9.71353582 11.3868768,9.23351531 C10.0171267,10.1559093 8.2249545,10.1559093 6.85512239,9.23351531 C5.03426374,10.140059 3.88727925,12.0031167 3.89767525,14.0371242 C3.89767525,15.3963758 7.78120723,15.9191696 10.8132923,15.6204127 C10.5008381,15.5757939 10.2585313,15.324834 10.2248212,15.0110265 Z" id="Fill-4" fill="#95979D" mask="url(#mask-2)"></path>
                            <path d="M9.13147764,9.33507625 C10.0735153,9.32642317 10.9734974,8.94388312 11.6334897,8.27162886 C12.2934205,7.59929258 12.65929,6.69233884 12.6504934,5.75032167 C12.6504934,3.80356273 11.0723312,2.22531847 9.1254902,2.22531847 C7.17862873,2.22531847 5.60046649,3.80356273 5.60046649,5.75032167 C5.59175189,6.69443035 5.9591593,7.603127 6.62171473,8.27579136 C7.28429066,8.94845572 8.18738947,9.32964245 9.13147764,9.33507625 Z" id="Fill-5" fill="#95979D" mask="url(#mask-2)"></path>
                        </g>
                    </g>
                </g>
            </g>
        </g>
    </g>
</svg>
