<?xml version="1.0" encoding="UTF-8"?>
<svg width="20px" height="20px" viewBox="0 0 20 20" version="1.1" xmlns="http://www.w3.org/2000/svg" xmlns:xlink="http://www.w3.org/1999/xlink">
    <!-- Generator: Sketch 52.2 (67145) - http://www.bohemiancoding.com/sketch -->
    <title>高级设置_icon_权限管理_nor</title>
    <desc>Created with Sketch.</desc>
    <g id="Page-1" stroke="none" stroke-width="1" fill="none" fill-rule="evenodd">
        <g id="摄像头管理-区域管理-hover" transform="translate(-48.000000, -298.000000)" fill-rule="nonzero">
            <g id="Group-14" transform="translate(24.000000, 88.000000)">
                <g id="Group-4-Copy-4" transform="translate(0.000000, 188.000000)">
                    <g id="锁" transform="translate(24.000000, 22.000000)">
                        <rect id="Rectangle-path" fill="#000000" opacity="0" x="0" y="0" width="20" height="20"></rect>
                        <path d="M14.90625,9.4546875 L14.36125,9.4546875 L14.36125,5.0934375 C14.36125,2.9859375 12.4084375,1.2775 10,1.2775 C7.5915625,1.2775 5.63875,2.9859375 5.63875,5.0934375 L5.63875,9.4546875 L5.09375,9.4546875 C4.1903125,9.4546875 3.4584375,10.1865625 3.4584375,11.0903125 L3.4584375,17.086875 C3.4584375,17.9896875 4.190625,18.7221875 5.09375,18.7221875 L14.90625,18.7221875 C15.81,18.7221875 16.5415625,17.989375 16.5415625,17.086875 L16.5415625,11.0903125 C16.541875,10.1865625 15.81,9.4546875 14.90625,9.4546875 Z M10.8745277,14.9391549 L10.8745277,15.6191279 C10.8745277,16.1018511 10.4827851,16.4935938 10.0000619,16.4935938 C9.51708803,16.4935938 9.12584665,16.1018511 9.12584665,15.6191279 L9.12584665,14.9391549 C8.60527755,14.6358864 8.2513808,14.078474 8.2513808,13.432838 C8.2513808,12.4668903 9.03436484,11.6839063 10.0003125,11.6839063 C10.9662602,11.6839063 11.7492442,12.4666397 11.7492442,13.432838 C11.7489936,14.078474 11.3948462,14.6358864 10.8745277,14.9391549 Z M12.180625,8.9096875 C12.180625,9.101875 12.1284375,9.28375 12.046875,9.4546875 L7.953125,9.4546875 C7.8715625,9.28375 7.819375,9.101875 7.819375,8.9096875 L7.819375,5.0934375 C7.819375,4.1896875 8.795625,3.458125 10,3.458125 C11.204375,3.458125 12.180625,4.19 12.180625,5.0934375 L12.180625,8.9096875 Z" id="Shape" fill="#95979D"></path>
                    </g>
                </g>
            </g>
        </g>
    </g>
</svg>
