<?xml version="1.0" encoding="UTF-8"?>
<svg width="20px" height="20px" viewBox="0 0 20 20" version="1.1" xmlns="http://www.w3.org/2000/svg" xmlns:xlink="http://www.w3.org/1999/xlink">
    <!-- Generator: Sketch 52.2 (67145) - http://www.bohemiancoding.com/sketch -->
    <title>高级设置_icon_数据管理_nor</title>
    <desc>Created with Sketch.</desc>
    <defs>
        <polygon id="path-1" points="0.00132736021 0.0176981362 19.0489464 0.0176981362 19.0489464 19.0667124 0.00132736021 19.0667124"></polygon>
    </defs>
    <g id="Page-1" stroke="none" stroke-width="1" fill="none" fill-rule="evenodd">
        <g id="摄像头管理-区域管理-hover" transform="translate(-48.000000, -506.000000)">
            <g id="Group-14" transform="translate(24.000000, 88.000000)">
                <g id="Group-4-Copy" transform="translate(0.000000, 396.000000)">
                    <g id="数据管理" transform="translate(24.000000, 22.000000)">
                        <mask id="mask-2" fill="white">
                            <use xlink:href="#path-1"></use>
                        </mask>
                        <g id="Clip-2"></g>
                        <path d="M3.59974055,2.72108844 L6.27835012,2.72108844 L6.27835012,17.0068027 L3.59974055,17.0068027 C2.6135856,17.0068027 1.81405896,16.2073458 1.81405896,15.2211211 L1.81405896,4.50677002 C1.81405896,3.52061508 2.6135856,2.72108844 3.59974055,2.72108844 Z M3.15336374,5.39969801 C2.90676397,5.39969801 2.70689975,5.5995448 2.70689975,5.84607481 C2.70689975,6.09267458 2.90676397,6.29253881 3.15336374,6.29253881 L4.93904533,6.29253881 C5.1856451,6.29253881 5.38550933,6.09267458 5.38550933,5.84607481 C5.38550933,5.5995448 5.1856451,5.39969801 4.93904533,5.39969801 L3.15336374,5.39969801 Z M3.15336374,8.07822039 C2.90676397,8.07822039 2.70689975,8.27808462 2.70689975,8.52468439 C2.70689975,8.77119696 2.90676397,8.97106119 3.15336374,8.97106119 L4.93904533,8.97106119 C5.1856451,8.97106119 5.38550933,8.77119696 5.38550933,8.52468439 C5.38550933,8.27808462 5.1856451,8.07822039 4.93904533,8.07822039 L3.15336374,8.07822039 Z M3.15336374,10.75683 C2.90676397,10.75683 2.70689975,10.9566942 2.70689975,11.2032068 C2.70689975,11.4498065 2.90676397,11.6496708 3.15336374,11.6496708 L4.93904533,11.6496708 C5.1856451,11.6496708 5.38550933,11.4498065 5.38550933,11.2032068 C5.38550933,10.9566942 5.1856451,10.75683 4.93904533,10.75683 L3.15336374,10.75683 Z M7.17119091,17.0068027 L10.7426413,17.0068027 L10.7426413,2.72108844 L7.17119091,2.72108844 L7.17119091,17.0068027 Z M8.5104957,5.39969801 C8.26396569,5.39969801 8.06403171,5.5995448 8.06403171,5.84607481 C8.06403171,6.09267458 8.26396569,6.29253881 8.5104957,6.29253881 L9.4033365,6.29253881 C9.64993627,6.29253881 9.84980049,6.09267458 9.84980049,5.84607481 C9.84980049,5.5995448 9.64993627,5.39969801 9.4033365,5.39969801 L8.5104957,5.39969801 Z M8.5104957,8.07822039 C8.26396569,8.07822039 8.06403171,8.27808462 8.06403171,8.52468439 C8.06403171,8.77119696 8.26396569,8.97106119 8.5104957,8.97106119 L9.4033365,8.97106119 C9.64993627,8.97106119 9.84980049,8.77119696 9.84980049,8.52468439 C9.84980049,8.27808462 9.64993627,8.07822039 9.4033365,8.07822039 L8.5104957,8.07822039 Z M8.5104957,10.75683 C8.26396569,10.75683 8.06403171,10.9566942 8.06403171,11.2032068 C8.06403171,11.4498065 8.26396569,11.6496708 8.5104957,11.6496708 L9.4033365,11.6496708 C9.64993627,11.6496708 9.84980049,11.4498065 9.84980049,11.2032068 C9.84980049,10.9566942 9.64993627,10.75683 9.4033365,10.75683 L8.5104957,10.75683 Z M11.6354821,2.72108844 L14.3140917,2.72108844 C15.3003164,2.72108844 16.0997732,3.52061508 16.0997732,4.50677002 L16.0997732,15.2211211 C16.0997732,16.2073458 15.3003164,17.0068027 14.3140917,17.0068027 L11.6354821,17.0068027 L11.6354821,2.72108844 Z M12.9747869,5.39969801 C12.7282569,5.39969801 12.5283229,5.5995448 12.5283229,5.84607481 C12.5283229,6.09267458 12.7282569,6.29253881 12.9747869,6.29253881 L14.7604685,6.29253881 C15.0070682,6.29253881 15.2069324,6.09267458 15.2069324,5.84607481 C15.2069324,5.5995448 15.0070682,5.39969801 14.7604685,5.39969801 L12.9747869,5.39969801 Z M12.9747869,8.07822039 C12.7282569,8.07822039 12.5283229,8.27808462 12.5283229,8.52468439 C12.5283229,8.77119696 12.7282569,8.97106119 12.9747869,8.97106119 L14.7604685,8.97106119 C15.0070682,8.97106119 15.2069324,8.77119696 15.2069324,8.52468439 C15.2069324,8.27808462 15.0070682,8.07822039 14.7604685,8.07822039 L12.9747869,8.07822039 Z M12.9747869,10.75683 C12.7282569,10.75683 12.5283229,10.9566942 12.5283229,11.2032068 C12.5283229,11.4498065 12.7282569,11.6496708 12.9747869,11.6496708 L14.7604685,11.6496708 C15.0070682,11.6496708 15.2069324,11.4498065 15.2069324,11.2032068 C15.2069324,10.9566942 15.0070682,10.75683 14.7604685,10.75683 L12.9747869,10.75683 Z" id="Fill-1" fill="#95979D" mask="url(#mask-2)"></path>
                    </g>
                </g>
            </g>
        </g>
    </g>
</svg>
