<?xml version="1.0" encoding="UTF-8"?>
<svg width="20px" height="20px" viewBox="0 0 20 20" version="1.1" xmlns="http://www.w3.org/2000/svg" xmlns:xlink="http://www.w3.org/1999/xlink">
    <!-- Generator: Sketch 52.2 (67145) - http://www.bohemiancoding.com/sketch -->
    <title>高级设置_icon_纪录查询_nor</title>
    <desc>Created with Sketch.</desc>
    <defs>
        <polygon id="path-1" points="0.00167364017 0.00557103064 19.9944491 0.00557103064 19.9944491 19.9721727 0.00167364017 19.9721727"></polygon>
    </defs>
    <g id="Page-1" stroke="none" stroke-width="1" fill="none" fill-rule="evenodd">
        <g id="摄像头管理-区域管理-hover" transform="translate(-48.000000, -570.000000)">
            <g id="Group-14" transform="translate(24.000000, 88.000000)">
                <g id="Group-4-Copy-2" transform="translate(0.000000, 460.000000)">
                    <g id="历史记录" transform="translate(24.000000, 22.000000)">
                        <mask id="mask-2" fill="white">
                            <use xlink:href="#path-1"></use>
                        </mask>
                        <g id="Clip-2"></g>
                        <path d="M16,9.48950207 C16,13.6255107 12.6417248,16.9791086 8.49994768,16.9791086 C4.35825424,16.9791086 1,13.6255107 1,9.48950207 C1,5.35357701 4.35825424,2 8.49994768,2 C12.6417248,2 16,5.35357701 16,9.48950207 Z M11.9436441,12.2145551 L9.07085928,9.34577138 L9.07085928,5.2666448 C9.07085928,4.91220799 8.7829551,4.62635567 8.42965621,4.62635567 C8.07472506,4.62635567 7.78845314,4.91392156 7.78845314,5.2666448 L7.78845314,9.51294869 C7.76173024,9.70518171 7.82197709,9.90915894 7.96927739,10.056275 L11.0363002,13.1189217 C11.2874159,13.3696876 11.6925283,13.3696876 11.9436441,13.1189217 C12.1930438,12.8698692 12.1947598,12.465321 11.9436441,12.2145551 Z" id="Fill-1" fill="#95979D" mask="url(#mask-2)"></path>
                    </g>
                </g>
            </g>
        </g>
    </g>
</svg>
