<?xml version="1.0" encoding="UTF-8"?>
<svg width="20px" height="20px" viewBox="0 0 20 20" version="1.1" xmlns="http://www.w3.org/2000/svg" xmlns:xlink="http://www.w3.org/1999/xlink">
    <!-- Generator: Sketch 52.2 (67145) - http://www.bohemiancoding.com/sketch -->
    <title>高级设置_icon_单位管理_nor</title>
    <desc>Created with Sketch.</desc>
    <defs>
        <polygon id="path-1" points="0.00167597765 0.0030944528 19.9968436 0.0030944528 19.9968436 19.9721339 0.00167597765 19.9721339"></polygon>
    </defs>
    <g id="Page-1" stroke="none" stroke-width="1" fill="none" fill-rule="evenodd">
        <g id="摄像头管理-区域管理-hover" transform="translate(-48.000000, -234.000000)">
            <g id="Group-14" transform="translate(24.000000, 88.000000)">
                <g id="Group-4-Copy-3" transform="translate(0.000000, 124.000000)">
                    <g id="单位信息" transform="translate(24.000000, 22.000000)">
                        <mask id="mask-2" fill="white">
                            <use xlink:href="#path-1"></use>
                        </mask>
                        <g id="Clip-2"></g>
                        <path d="M16.7571544,15.7038377 L16.0246156,15.7038377 L16.0246156,6.63336856 C16.0246156,6.3895644 15.8950421,6.16415225 15.6842127,6.0413086 L11.9657837,3.87494159 C11.7538019,3.7513656 11.4917215,3.75054958 11.2789225,3.87282829 C11.0660398,3.995107 10.9348319,4.22166995 10.9348319,4.46693879 L10.9348319,15.7038377 L10.1549812,15.7038377 L10.1549812,2.685235 C10.1549812,2.45490577 10.0391738,2.23995552 9.84665736,2.1130945 C9.65424571,1.98633809 9.41083439,1.96468195 9.19899928,2.05547034 L3.38813807,4.54753728 C3.13628268,4.65550411 2.97293288,4.90324196 2.97293288,5.17730195 L2.97293288,15.7038377 L2.24301321,15.7038377 C2.10876717,15.7038377 2,15.8124741 2,15.9465957 L2,16.7363856 C2,16.8705072 2.10876717,16.9791436 2.24301321,16.9791436 L16.7571544,16.9791436 C16.8912957,16.9791436 17,16.8705072 17,16.7363856 L17,15.9465957 C17,15.8124741 16.8912119,15.7038377 16.7570706,15.7038377 L16.7571544,15.7038377 Z M12.8289437,6.32867612 C12.8289437,6.19455454 12.9377318,6.08583445 13.0719569,6.08583445 L13.8437826,6.08583445 C13.9779239,6.08583445 14.086712,6.19447084 14.086712,6.32867612 L14.086712,7.10007402 C14.086712,7.23411191 13.9779239,7.342832 13.8437826,7.342832 L13.0719569,7.342832 C12.9377318,7.342832 12.8289437,7.23411191 12.8289437,7.10007402 L12.8289437,6.32867612 Z M12.8289437,8.27099103 C12.8289437,8.13695314 12.9377318,8.02817028 13.0719569,8.02817028 L13.8437826,8.02817028 C13.9779239,8.02817028 14.086712,8.13695314 14.086712,8.27099103 L14.086712,9.04247262 C14.086712,9.17644774 13.9779239,9.2852306 13.8437826,9.2852306 L13.0719569,9.2852306 C12.9377318,9.2852306 12.8289437,9.17644774 12.8289437,9.04247262 L12.8289437,8.27099103 Z M12.8289437,10.2133059 C12.8289437,10.079268 12.9377318,9.97048519 13.0719569,9.97048519 L13.8437826,9.97048519 C13.9779239,9.97048519 14.086712,10.0791844 14.086712,10.2133059 L14.086712,10.9847038 C14.086712,11.1188463 13.9779239,11.2275455 13.8437826,11.2275455 L13.0719569,11.2275455 C12.9377318,11.2275455 12.8289437,11.1188463 12.8289437,10.9847038 L12.8289437,10.2133059 Z M12.8289437,12.1556208 C12.8289437,12.0214993 12.9377318,11.9128001 13.0719569,11.9128001 L13.8437826,11.9128001 C13.9779239,11.9128001 14.086712,12.0214156 14.086712,12.1556208 L14.086712,12.9270397 C14.086712,13.0610776 13.9779239,13.1698604 13.8437826,13.1698604 L13.0719569,13.1698604 C12.9377318,13.1698604 12.8289437,13.0610776 12.8289437,12.9270397 L12.8289437,12.1556208 Z M12.8289437,14.0979358 C12.8289437,13.9638142 12.9377318,13.855115 13.0719569,13.855115 L13.8437826,13.855115 C13.9779239,13.855115 14.086712,13.9638142 14.086712,14.0979358 L14.086712,14.8693546 C14.086712,15.0033925 13.9779239,15.1120916 13.8437826,15.1120916 L13.0719569,15.1120916 C12.9377318,15.1120916 12.8289437,15.0033925 12.8289437,14.8693546 L12.8289437,14.0979358 Z M7.09527342,4.38627752 C7.09527342,4.25232333 7.20404058,4.14351955 7.33826568,4.14351955 L8.1100914,4.14351955 C8.24433744,4.14351955 8.35310461,4.25232333 8.35310461,4.38627752 L8.35310461,5.15775911 C8.35310461,5.291797 8.24433744,5.40057986 8.1100914,5.40057986 L7.33826568,5.40057986 C7.20404058,5.40057986 7.09527342,5.2918807 7.09527342,5.15775911 L7.09527342,4.38627752 Z M7.09527342,6.32867612 C7.09527342,6.19455454 7.20404058,6.08583445 7.33826568,6.08583445 L8.1100914,6.08583445 C8.24433744,6.08583445 8.35310461,6.19447084 8.35310461,6.32867612 L8.35310461,7.10007402 C8.35310461,7.23411191 8.24433744,7.342832 8.1100914,7.342832 L7.33826568,7.342832 C7.20404058,7.342832 7.09527342,7.23411191 7.09527342,7.10007402 L7.09527342,6.32867612 Z M7.09527342,8.27099103 C7.09527342,8.13695314 7.20404058,8.02817028 7.33826568,8.02817028 L8.1100914,8.02817028 C8.24433744,8.02817028 8.35310461,8.13695314 8.35310461,8.27099103 L8.35310461,9.04247262 C8.35310461,9.17644774 8.24433744,9.2852306 8.1100914,9.2852306 L7.33826568,9.2852306 C7.20404058,9.2852306 7.09527342,9.17644774 7.09527342,9.04247262 L7.09527342,8.27099103 Z M7.09527342,10.2133059 C7.09527342,10.079268 7.20404058,9.97048519 7.33826568,9.97048519 L8.1100914,9.97048519 C8.24433744,9.97048519 8.35310461,10.0791844 8.35310461,10.2133059 L8.35310461,10.9847038 C8.35310461,11.1188463 8.24433744,11.2275455 8.1100914,11.2275455 L7.33826568,11.2275455 C7.20404058,11.2275455 7.09527342,11.1188463 7.09527342,10.9847038 L7.09527342,10.2133059 Z M7.09527342,12.1556208 C7.09527342,12.0214993 7.20404058,11.9128001 7.33826568,11.9128001 L8.1100914,11.9128001 C8.24433744,11.9128001 8.35310461,12.0214156 8.35310461,12.1556208 L8.35310461,12.9270397 C8.35310461,13.0610776 8.24433744,13.1698604 8.1100914,13.1698604 L7.33826568,13.1698604 C7.20404058,13.1698604 7.09527342,13.0610776 7.09527342,12.9270397 L7.09527342,12.1556208 Z M7.09527342,14.0979358 C7.09527342,13.9638142 7.20404058,13.855115 7.33826568,13.855115 L8.1100914,13.855115 C8.24433744,13.855115 8.35310461,13.9638142 8.35310461,14.0979358 L8.35310461,14.8693546 C8.35310461,15.0033925 8.24433744,15.1120916 8.1100914,15.1120916 L7.33826568,15.1120916 C7.20404058,15.1120916 7.09527342,15.0033925 7.09527342,14.8693546 L7.09527342,14.0979358 Z M4.75557455,6.32867612 C4.75557455,6.19455454 4.86434172,6.08583445 4.99856681,6.08583445 L5.77030872,6.08583445 C5.90447096,6.08583445 6.01340575,6.19447084 6.01340575,6.32867612 L6.01340575,7.10007402 C6.01340575,7.23411191 5.90447096,7.342832 5.77030872,7.342832 L4.99856681,7.342832 C4.86434172,7.342832 4.75557455,7.23411191 4.75557455,7.10007402 L4.75557455,6.32867612 Z M4.75557455,8.27099103 C4.75557455,8.13695314 4.86434172,8.02817028 4.99856681,8.02817028 L5.77030872,8.02817028 C5.90447096,8.02817028 6.01340575,8.13695314 6.01340575,8.27099103 L6.01340575,9.04247262 C6.01340575,9.17644774 5.90447096,9.2852306 5.77030872,9.2852306 L4.99856681,9.2852306 C4.86434172,9.2852306 4.75557455,9.17644774 4.75557455,9.04247262 L4.75557455,8.27099103 Z M4.75557455,10.2133059 C4.75557455,10.079268 4.86434172,9.97048519 4.99856681,9.97048519 L5.77030872,9.97048519 C5.90447096,9.97048519 6.01340575,10.0791844 6.01340575,10.2133059 L6.01340575,10.9847038 C6.01340575,11.1188463 5.90447096,11.2275455 5.77030872,11.2275455 L4.99856681,11.2275455 C4.86434172,11.2275455 4.75557455,11.1188463 4.75557455,10.9847038 L4.75557455,10.2133059 Z M4.75557455,12.1556208 C4.75557455,12.0214993 4.86434172,11.9128001 4.99856681,11.9128001 L5.77030872,11.9128001 C5.90447096,11.9128001 6.01340575,12.0214156 6.01340575,12.1556208 L6.01340575,12.9270397 C6.01340575,13.0610776 5.90447096,13.1698604 5.77030872,13.1698604 L4.99856681,13.1698604 C4.86434172,13.1698604 4.75557455,13.0610776 4.75557455,12.9270397 L4.75557455,12.1556208 Z M4.75557455,14.0979358 C4.75557455,13.9638142 4.86434172,13.855115 4.99856681,13.855115 L5.77030872,13.855115 C5.90447096,13.855115 6.01340575,13.9638142 6.01340575,14.0979358 L6.01340575,14.8693546 C6.01340575,15.0033925 5.90447096,15.1120916 5.77030872,15.1120916 L4.99856681,15.1120916 C4.86434172,15.1120916 4.75557455,15.0033925 4.75557455,14.8693546 L4.75557455,14.0979358 Z" id="Fill-1" fill="#95979D" mask="url(#mask-2)"></path>
                    </g>
                </g>
            </g>
        </g>
    </g>
</svg>
