<svg viewBox="0 0 18 18" xmlns="http://www.w3.org/2000/svg"><path d="m9.065475.5625c-4.695975 0-8.502975 3.807-8.502975 8.502975s3.807 8.502975 8.502975 8.502975 8.502975-3.807 8.502975-8.502975-3.807-8.502975-8.502975-8.502975zm4.85235 9.86895h-3.617775v3.617325c0 .619875-.5022 1.1223-1.122075 1.1223-.61965 0-1.1223-.502425-1.1223-1.1223v-3.617325h-3.617325c-.619875 0-1.1223-.502425-1.1223-1.1223s.502425-1.1223 1.1223-1.1223h3.61755v-3.617325c0-.619875.502425-1.122075 1.1223-1.122075s1.122075.5022 1.122075 1.122075v3.61755h3.617775c.61965 0 1.1223.502425 1.1223 1.1223s-.502875 1.122075-1.122525 1.122075z" fill="#00cc4b" transform=""/></svg>
