<svg viewBox="0 0 18 18" xmlns="http://www.w3.org/2000/svg"><path d="m9.065475.5625c-4.695975 0-8.502975 3.807-8.502975 8.502975s3.807 8.502975 8.502975 8.502975 8.502975-3.807 8.502975-8.502975-3.807-8.502975-8.502975-8.502975zm2.6706396 12.8916899-2.55815325-2.5581533-2.55783504 2.5578351c-.43831781.4383178-1.14869496.4384769-1.58701278.0001591-.43815871-.4381587-.43831781-1.1488541 0-1.5871719l2.55783504-2.55783505-2.55783504-2.55783504c-.43831781-.43831781-.43831781-1.14885406 0-1.58717188.43831782-.43831781 1.14885407-.43831781 1.58717188 0l2.55799414 2.55799414 2.55783505-2.55783504c.4383178-.43831781 1.148695-.43815871 1.5870128.0001591.4383178.43831782.4383178 1.14853587 0 1.58685368l-2.5579942 2.55799414 2.5581533 2.55815325c.4381587.4381587.4383178 1.1488541 0 1.5871719s-1.1490132.4378405-1.5871719-.0003182z" fill="#fe004e" transform=""/></svg>
