<svg viewBox="0 0 18 18" xmlns="http://www.w3.org/2000/svg"><path d="m9.065475.5625c4.695975 0 8.502975 3.807 8.502975 8.502975s-3.807 8.502975-8.502975 8.502975-8.502975-3.807-8.502975-8.502975 3.807-8.502975 8.502975-8.502975zm-3.93193898 11.5431944-.37263922 1.3630927c-.13878264.5076589.16025064 1.0317033.66790951 1.1704859.16589691.0453525.34097535.0449626.50666859-.0011285l1.61164566-.4483134 5.09960144-5.09194077-2.3726182-2.31334608-4.88268427 4.87735895c-.12310843.1229742-.21199771.2759435-.25788351.4437912zm7.12653178-7.30281812-1.2708445 1.26870923 2.3801778 2.30473499 1.2331519-1.23209566c.6472809-.64618665.6472809-1.69514877 0-2.34134856-.6462028-.64618664-1.6962823-.64618664-2.3424852 0z" fill="#fcc30f" transform=""/></svg>
